<svg width="16" height="29" viewBox="0 0 16 29" fill="none" xmlns="http://www.w3.org/2000/svg">
<path d="M9.96923 9.39238V11.2385H15.6923L14.7077 16.5924H9.96923V28.777H3.63077V16.5924H0V11.2385H3.63077V8.34622C3.63077 7.42314 3.75385 6.43853 4 5.51545C4.49231 3.79238 5.29231 2.37699 6.64616 1.57699C8.30769 0.469298 10.5231 0.223145 12.2462 0.223145C13.9692 0.223145 15.5077 0.530837 16 0.653914V5.51545C15.0769 5.51545 14.2154 5.45391 13.4769 5.51545C13.1692 5.51545 12.8615 5.51545 12.6154 5.63853C9.90769 6.0693 10.0923 8.65391 10.0308 9.45391L9.96923 9.39238Z" fill="#645BFF"/>
</svg>
