<svg width="221" height="118" viewBox="0 0 221 118" fill="none" xmlns="http://www.w3.org/2000/svg">
<path d="M117.871 27.5689L100.819 64.1305C100.751 63.9336 100.615 63.8023 100.547 63.6053C100.14 62.8833 99.7999 62.2925 99.4602 61.6361C97.9656 58.8136 96.5389 55.9911 94.9084 53.2342C92.3268 48.7707 89.8131 44.2415 87.0277 39.9092C84.9216 36.5616 82.4079 33.4765 80.166 30.1945C80.0301 29.9319 79.8263 29.735 79.6225 29.6037C79.2149 29.2099 78.6714 29.013 78.06 28.8817C74.4593 27.8971 70.9945 28.2909 67.5297 29.5381C62.9779 31.1791 59.5131 34.0673 56.5918 37.7431C54.3498 40.5 52.3797 43.4538 50.5453 46.4733C48.5072 49.9522 46.6729 53.5624 44.9745 57.3039C41.5097 65.0494 38.5884 72.9263 36.0747 80.9344C34.648 85.4635 33.3572 90.0583 32.0664 94.6532C30.8435 98.9198 28.6016 102.464 24.6612 104.827C19.7698 107.781 14.5386 108.241 9.23947 105.943C6.25023 104.63 4.0083 102.727 2.44574 100.364C2.30987 100.101 2.10606 99.8387 1.97018 99.5105C1.22287 98.1321 0.611436 96.5567 0.339686 94.8501C0.339686 94.5219 0.203812 94.128 0.203812 93.7998C0.0679373 93.0122 0.0679373 92.2245 0 91.4368C0 90.9117 1.01234e-08 90.3866 0.135875 89.8614C0.135875 89.6645 0.203812 89.4676 0.271749 89.2707C0.271749 89.0081 0.339686 88.6799 0.407624 88.4173C0.475561 88.0235 0.611436 87.6297 0.74731 87.2358C1.76637 83.8225 2.58162 80.3436 3.60068 76.9303C5.84261 69.6442 8.28835 62.4895 11.2097 55.466C13.9271 49.0989 16.7805 42.7974 20.4491 36.8241C22.2155 33.936 24.0498 31.1135 26.1559 28.4222C26.8352 27.5689 27.5146 26.7156 28.2619 25.8622C29.3489 24.6807 30.2321 23.4335 31.2512 22.252C35.5991 17.4603 40.3548 13.0624 45.8577 9.38655C46.2653 9.18963 46.605 8.92707 47.0126 8.66451C51.0209 6.0389 55.3689 4.00405 59.8528 2.42869C60.4642 2.23177 61.1436 1.96921 61.755 1.77229C61.8909 1.77229 62.0267 1.70665 62.2306 1.641C64.2687 1.05024 66.3747 0.656402 68.4808 0.393841C68.5487 0.393841 68.6846 0.393841 68.6846 0.393841C68.6846 0.393841 69.7037 0.262561 70.383 0.196921C71.1983 0.13128 72.0135 0.0656402 72.625 0C73.712 0 74.8669 0 75.9539 0C76.8371 0 78.0599 0.0656402 79.4866 0.262561C79.6904 0.262561 84.446 0.853323 89.4055 2.69125C96.1992 5.25122 101.974 9.18963 107.001 14.2439C110.806 18.0511 114.135 22.1864 117.328 26.5186C117.667 26.9781 117.803 27.3063 117.939 27.7002L117.871 27.5689Z" fill="#645BFF"/>
<path d="M220.932 78.8336C220.728 79.2274 220.457 79.6213 220.253 80.0151C219.166 81.7217 218.079 83.4284 216.924 85.135C216.38 85.9227 215.769 86.6448 215.225 87.4324C214.002 89.0734 212.915 90.5175 211.896 91.8303C210.47 93.6683 209.383 94.9811 207.82 96.4908C207.345 97.0159 206.869 97.541 206.394 98.0005C206.19 98.1974 205.986 98.3943 205.782 98.5913C202.181 102.201 198.445 104.827 198.445 104.827L197.562 105.287C193.961 107.518 190.021 108.831 185.741 109.356C180.102 110.013 174.735 108.831 169.775 106.206C164.884 103.646 160.876 100.035 157.411 95.9657C156.935 95.3749 156.392 94.7841 155.916 94.1934C152.044 89.2704 148.579 84.0192 145.522 78.571C144.842 77.3239 144.095 76.0767 143.484 74.7639C141.242 70.4973 139.136 66.0994 136.894 61.7671C136.826 61.6358 136.758 61.4389 136.622 61.3076C136.622 61.3076 136.622 61.1764 136.554 61.1764C136.554 61.0451 136.418 60.9794 136.35 60.8482C136.35 60.8482 136.35 60.8482 136.35 60.7169C136.35 60.6512 136.35 60.5856 136.35 60.5856L148.511 34.5264C149.054 33.6731 149.666 32.8198 150.345 32.0321C151.5 30.6537 153.131 29.866 154.965 29.6691C156.731 29.5378 158.158 30.3255 159.449 31.4414C161.555 33.2136 162.438 35.5767 163.321 38.0054C163.865 39.4495 164.272 40.8935 164.748 42.3376C164.952 42.994 165.156 43.7161 165.359 44.3725C166.446 47.917 167.533 51.5273 168.688 55.0718C170.319 59.9948 172.085 64.8522 174.463 69.5127C175.55 71.5475 176.569 73.5824 177.996 75.4859C179.422 77.3895 180.781 79.2931 182.48 80.9341C184.789 83.1658 187.371 85.0038 190.36 86.2509C193.01 87.3668 195.795 88.0232 198.717 88.0888C200.959 88.1545 203.2 88.0232 205.306 87.4981C207.277 87.0386 209.247 86.2509 211.149 85.5289C212.236 85.135 213.255 84.6099 214.274 84.0191C215.497 83.2315 216.652 82.3125 217.739 81.4592L220.864 78.8992L220.932 78.8336Z" fill="#DCDCF9"/>
<path d="M198.445 104.762C197.426 105.549 196.475 106.403 195.456 107.125C190.7 110.472 185.537 113.164 179.966 115.067C176.161 116.38 172.221 117.102 168.213 117.365C163.729 117.627 159.313 117.233 154.965 116.118C151.025 115.133 147.22 113.558 143.755 111.588C140.223 109.554 136.962 107.19 133.904 104.631C129.624 101.02 125.82 96.8193 122.423 92.2902C122.287 92.0932 122.083 91.8963 121.947 91.6994L136.486 60.5859C136.486 60.5859 136.486 60.6516 136.486 60.7172C136.486 60.7172 136.486 60.7829 136.486 60.8485C136.486 60.9798 136.622 61.0454 136.69 61.1767C136.69 61.1767 136.69 61.308 136.758 61.308C136.826 61.4393 136.894 61.5705 136.962 61.7018C139.136 66.0341 141.242 70.3663 143.551 74.6329C144.231 75.8801 144.91 77.1929 145.59 78.4401C148.647 83.8882 152.044 89.0738 155.984 94.0624C156.46 94.6532 156.935 95.244 157.479 95.8347C160.943 99.9044 164.952 103.515 169.843 106.075C174.803 108.7 180.17 109.947 185.809 109.225C190.021 108.7 194.029 107.387 197.63 105.156L198.513 104.696L198.445 104.762Z" fill="#645BFF"/>
<path d="M100.751 64.1303L89.8131 87.5639C89.2017 88.6141 88.5223 89.5987 87.775 90.5177C86.6201 91.8961 85.2613 93.0776 83.427 93.6684C81.3209 94.3248 78.8073 93.5371 77.2447 91.8305C76.1577 90.6489 75.2745 89.3361 74.6631 87.9577C74.1196 86.7762 73.644 85.5946 73.2364 84.3475C72.1494 81.0655 71.1983 77.7835 70.2472 74.4358C69.4319 71.6133 68.7525 68.7251 67.8694 65.9682C66.9182 62.9488 65.8992 59.995 64.8122 57.0412C64.5404 56.2535 64.2007 55.5314 63.929 54.7437C63.3855 53.3653 62.7741 51.9869 62.0947 50.6741C61.3474 49.0987 60.3283 47.6546 58.9696 46.4731C58.8337 46.3418 58.562 46.1449 58.2223 45.948C57.3391 45.3572 55.9124 44.6352 54.4178 44.6352C53.3308 44.6352 52.4476 45.029 52.4476 45.029C51.972 45.2259 51.7003 45.4228 51.2247 45.751C51.0209 45.8823 50.7492 46.0792 50.4774 46.2762C52.2438 43.2567 54.2819 40.3685 56.5238 37.546C59.4451 33.9358 62.9779 30.982 67.4617 29.341C70.9265 28.0938 74.3913 27.7 77.992 28.6846C78.6035 28.8815 79.079 29.0784 79.5546 29.4066C79.7584 29.6036 79.8943 29.8005 80.0981 29.9974C82.34 33.2794 84.8537 36.3645 86.9597 39.7121C89.7452 44.11 92.2588 48.5736 94.8405 53.0371C96.403 55.794 97.8297 58.6822 99.3923 61.4391C99.7319 62.0955 100.072 62.6862 100.479 63.4083L100.751 63.9334V64.1303Z" fill="#D0D0EA"/>
<path d="M79.6225 29.5381C79.2149 29.1443 78.6714 28.9474 78.06 28.8161C74.4593 27.8315 70.9945 28.2253 67.5297 29.4725C62.9779 31.1135 59.5131 34.0017 56.5918 37.6775C54.3498 40.4344 52.3797 43.3882 50.5453 46.4077C48.5072 49.8866 46.6729 53.4968 44.9745 57.2383C41.5097 64.9838 38.5884 72.8607 36.0747 80.8688C34.648 85.3979 33.3572 89.9928 32.0664 94.5876C30.8435 98.8542 28.6016 102.399 24.6612 104.762C19.7698 107.716 14.5386 108.175 9.23947 105.878C6.25023 104.565 4.0083 102.661 2.44574 100.298C2.30987 100.036 2.10606 99.7731 1.97018 99.4449C1.22287 98.0665 0.611436 96.4911 0.339686 94.7845C0.339686 94.4563 0.203812 94.0624 0.203812 93.7342C0.0679373 92.9466 0.0679373 92.1589 0 91.3712C0 90.8461 1.01234e-08 90.321 0.135875 89.7958C0.135875 89.5989 0.203812 89.402 0.271749 89.2051C0.271749 88.9425 0.339686 88.6143 0.407624 88.3518C0.475561 87.9579 0.611436 87.5641 0.74731 87.1702C1.76637 83.7569 2.58162 80.278 3.60068 76.8647C5.84261 69.5787 8.28835 62.4239 11.2097 55.4004C13.9271 49.0333 16.7805 42.7318 20.4491 36.7586C22.2155 33.8704 24.0498 31.0479 26.1559 28.3566C55.7765 -1.50967 79.2149 29.013 79.6904 29.6694L79.6225 29.5381Z" fill="url(#paint0_linear_110_5200)"/>
<path d="M74.6631 87.9576C74.1196 86.7761 73.644 85.5946 73.2364 84.3474C72.1494 81.0654 71.1983 77.7834 70.2472 74.4358C69.4319 71.6132 68.7525 68.7251 67.8694 65.9682C66.9182 62.9487 65.8992 59.9949 64.8122 57.0411C64.5404 56.2534 64.2007 55.5314 63.929 54.7437C63.2496 53.1027 62.7741 51.9212 62.0947 50.674C61.0756 48.8361 60.1924 47.1951 58.2902 45.9479C57.475 45.4228 56.32 44.6351 54.6895 44.6351C52.7193 44.6351 51.3606 45.6853 50.953 46.0792C52.6514 44.5695 56.0483 41.9439 60.9398 41.1562C69.9075 39.7121 77.5844 45.4884 80.8454 49.5581C88.0467 58.5508 86.2804 74.6983 74.731 87.9576H74.6631Z" fill="#DCDCF9"/>
<defs>
<linearGradient id="paint0_linear_110_5200" x1="52.8552" y1="26.1248" x2="16.7439" y2="109.04" gradientUnits="userSpaceOnUse">
<stop stop-color="#8274FF"/>
<stop offset="1" stop-color="#645BFF"/>
</linearGradient>
</defs>
</svg>
