<svg width="1346" height="1002" viewBox="0 0 1346 1002" fill="none" xmlns="http://www.w3.org/2000/svg">
<g opacity="0.7">
<g opacity="0.0145">
<path d="M976.224 398.575C973.788 406.979 977.208 415.96 984.619 420.613L1201.06 556.537C1205.44 559.288 1210.73 560.193 1215.78 559.069L1573.32 479.425C1577.3 478.541 1580.89 476.439 1583.63 473.423L1798.88 235.701C1803.84 230.228 1805.31 222.452 1802.68 215.569L1723.41 7.44191C1720.79 0.558508 1714.52 -4.28047 1707.18 -5.07058L1388.32 -39.3558C1384.27 -39.7863 1380.19 -38.9644 1376.63 -36.9773L1056.7 141.417C1052.19 143.939 1048.83 148.136 1047.39 153.104L976.224 398.575Z" stroke="url(#paint0_linear_107_3127)" stroke-width="2.97735"/>
</g>
<g opacity="0.029">
<path d="M959.59 386.352C956.744 394.597 959.68 403.714 966.803 408.749L1174.08 555.086C1178.32 558.073 1183.56 559.273 1188.68 558.412L1546.59 498.32C1550.62 497.642 1554.34 495.724 1557.23 492.846L1782.35 268.37C1787.58 263.167 1789.44 255.482 1787.18 248.471L1719.32 37.7512C1717.06 30.7503 1711.06 25.5866 1703.78 24.4102L1389.97 -26.4974C1385.94 -27.1492 1381.8 -26.5357 1378.14 -24.7344L1052.42 135.337C1047.77 137.622 1044.21 141.657 1042.51 146.554L959.59 386.352Z" stroke="url(#paint1_linear_107_3127)" stroke-width="2.97735"/>
</g>
<g opacity="0.0435">
<path d="M944.204 374.138C940.947 382.207 943.397 391.445 950.223 396.84L1147.86 553.004C1151.94 556.218 1157.12 557.702 1162.28 557.107L1519.5 516.385C1523.57 515.916 1527.41 514.191 1530.45 511.454L1764.66 300.602C1770.13 295.676 1772.39 288.099 1770.51 281L1714.11 68.3071C1712.23 61.2081 1706.51 55.7478 1699.32 54.1766L1391.4 -12.9196C1387.41 -13.7888 1383.22 -13.3873 1379.45 -11.7777L1048.98 129.857C1044.21 131.908 1040.44 135.752 1038.5 140.563L944.204 374.138Z" stroke="url(#paint2_linear_107_3127)" stroke-width="2.97735"/>
</g>
<g opacity="0.058">
<path d="M930.075 362.105C926.43 369.976 928.384 379.288 934.886 385.029L1122.43 550.424C1126.32 553.859 1131.44 555.607 1136.63 555.294L1492.14 533.713C1496.25 533.466 1500.16 531.933 1503.35 529.347L1745.86 332.438C1751.56 327.806 1754.2 320.384 1752.69 313.196L1707.77 99.1386C1706.26 91.9511 1700.86 86.2155 1693.78 84.2681L1392.58 1.45265C1388.62 0.367324 1384.41 0.538853 1380.56 1.96142L1046.35 125.106C1041.48 126.904 1037.5 130.56 1035.31 135.271L930.075 362.105Z" stroke="url(#paint3_linear_107_3127)" stroke-width="2.97735"/>
</g>
<g opacity="0.0725">
<path d="M917.166 350.238C913.134 357.893 914.593 367.263 920.762 373.329L1097.79 547.318C1101.5 550.964 1106.52 552.997 1111.73 552.954L1464.51 550.203C1468.63 550.169 1472.63 548.842 1475.96 546.415L1725.94 363.745C1731.87 359.41 1734.89 352.148 1733.76 344.902L1700.31 130.095C1699.18 122.849 1694.1 116.858 1687.13 114.53L1393.44 16.5242C1389.53 15.2244 1385.32 15.1773 1381.38 16.3978L1044.47 121.05C1039.49 122.592 1035.33 126.045 1032.91 130.645L917.166 350.238Z" stroke="url(#paint4_linear_107_3127)" stroke-width="2.97735"/>
</g>
<g opacity="0.087">
<path d="M905.491 338.658C901.094 346.077 902.059 355.489 907.87 361.863L1074 543.803C1077.52 547.647 1082.41 549.942 1087.63 550.181L1436.68 565.924C1440.82 566.114 1444.9 564.987 1448.36 562.726L1704.99 394.536C1711.13 390.518 1714.5 383.436 1713.75 376.152L1691.73 161.206C1690.98 153.922 1686.24 147.671 1679.42 144.981L1394 32.3306C1390.16 30.8185 1385.94 30.5414 1381.92 31.5669L1043.31 117.794C1038.26 119.085 1033.93 122.325 1031.27 126.802L905.491 338.658Z" stroke="url(#paint5_linear_107_3127)" stroke-width="2.97735"/>
</g>
<g opacity="0.1014">
<path d="M894.978 327.385C890.219 334.542 890.688 343.96 896.136 350.619L1051.03 539.859C1054.34 543.893 1059.11 546.451 1064.31 546.961L1408.69 580.812C1412.82 581.218 1416.96 580.316 1420.54 578.217L1683.02 424.689C1689.33 420.988 1693.07 414.104 1692.71 406.801L1682.02 192.329C1681.66 185.027 1677.26 178.537 1670.61 175.493L1394.18 48.8049C1390.4 47.073 1386.19 46.5865 1382.12 47.4011L1042.81 115.304C1037.68 116.329 1033.19 119.348 1030.3 123.691L894.978 327.385Z" stroke="url(#paint6_linear_107_3127)" stroke-width="2.97735"/>
</g>
<g opacity="0.1159">
<path d="M885.623 316.509C880.528 323.407 880.503 332.805 885.563 339.718L1028.92 535.573C1032 539.795 1036.65 542.61 1041.82 543.392L1380.58 594.883C1384.7 595.505 1388.91 594.82 1392.6 592.902L1660.07 454.193C1666.56 450.828 1670.64 444.148 1670.65 436.847L1671.21 223.445C1671.23 216.144 1667.19 209.444 1660.72 206.045L1393.97 65.9602C1390.29 64.0227 1386.08 63.3059 1381.96 63.9063L1042.93 113.649C1037.76 114.404 1033.09 117.195 1029.99 121.401L885.623 316.509Z" stroke="url(#paint7_linear_107_3127)" stroke-width="2.97735"/>
</g>
<g opacity="0.1304">
<path d="M877.4 306.069C871.973 312.67 871.458 322.032 876.128 329.19L1007.67 530.984C1010.53 535.372 1015.02 538.426 1020.16 539.489L1352.41 608.147C1356.5 608.994 1360.76 608.511 1364.55 606.778L1636.22 482.999C1642.85 479.978 1647.27 473.521 1647.67 466.242L1659.32 254.483C1659.72 247.204 1656.04 240.302 1649.77 236.57L1393.32 83.7401C1389.74 81.6017 1385.57 80.6544 1381.41 81.0484L1043.63 112.847C1038.41 113.341 1033.61 115.883 1030.28 119.932L877.4 306.069Z" stroke="url(#paint8_linear_107_3127)" stroke-width="2.97735"/>
</g>
<g opacity="0.1449">
<path d="M870.248 296.133C864.515 302.434 863.514 311.725 867.773 319.102L987.286 526.13C989.907 530.672 994.245 533.968 999.325 535.299L1324.21 620.574C1328.26 621.635 1332.54 621.376 1336.43 619.836L1611.47 511.034C1618.24 508.352 1622.97 502.143 1623.75 494.906L1646.32 285.374C1647.1 278.136 1643.8 271.064 1637.76 267L1392.21 102.117C1388.73 99.7827 1384.6 98.6171 1380.42 98.7919L1044.83 112.915C1039.58 113.134 1034.64 115.431 1031.11 119.31L870.248 296.133Z" stroke="url(#paint9_linear_107_3127)" stroke-width="2.97735"/>
</g>
<g opacity="0.1594">
<path d="M864.144 286.745C858.113 292.73 856.634 301.914 860.481 309.49L967.789 521.05C970.167 525.733 974.311 529.281 979.324 530.878L1296.03 632.18C1300.03 633.465 1304.34 633.422 1308.32 632.078L1585.89 538.263C1592.79 535.938 1597.82 529.994 1598.97 522.818L1632.27 316.051C1633.43 308.875 1630.52 301.652 1624.7 297.28L1390.61 121.064C1387.26 118.538 1383.18 117.146 1378.98 117.109L1046.48 113.861C1041.22 113.813 1036.17 115.871 1032.45 119.57L864.144 286.745Z" stroke="url(#paint10_linear_107_3127)" stroke-width="2.97735"/>
</g>
<g opacity="0.1739">
<path d="M859.04 277.992C852.737 283.649 850.788 292.701 854.205 300.451L949.152 515.846C951.269 520.655 955.242 524.419 960.162 526.287L1267.89 643.013C1271.83 644.508 1276.17 644.687 1280.22 643.545L1559.53 564.683C1566.52 562.707 1571.85 557.033 1573.37 549.948L1617.16 346.512C1618.69 339.427 1616.17 332.064 1610.61 327.387L1388.5 140.583C1385.27 137.873 1381.24 136.263 1377.03 136.003L1048.54 115.759C1043.28 115.436 1038.11 117.233 1034.21 120.744L859.04 277.992Z" stroke="url(#paint11_linear_107_3127)" stroke-width="2.97735"/>
</g>
<g opacity="0.1884">
<path d="M854.908 269.895C848.351 275.213 845.94 284.119 848.918 292.019L931.403 510.528C933.26 515.461 937.027 519.438 941.853 521.563L1239.88 653.037C1243.76 654.753 1248.08 655.158 1252.21 654.213L1532.46 590.23C1539.54 588.62 1545.14 583.24 1547.03 576.255L1601.06 376.667C1602.95 369.682 1600.83 362.211 1595.54 357.253L1385.84 160.613C1382.75 157.715 1378.81 155.906 1374.6 155.421L1050.95 118.586C1045.71 117.986 1040.45 119.53 1036.36 122.842L854.908 269.895Z" stroke="url(#paint12_linear_107_3127)" stroke-width="2.97735"/>
</g>
<g opacity="0.2029">
<path d="M851.691 262.504C844.899 267.472 842.034 276.21 844.572 284.224L914.528 505.147C916.121 510.181 919.674 514.35 924.389 516.738L1212.03 662.278C1215.82 664.197 1220.13 664.834 1224.31 664.1L1504.74 614.879C1511.87 613.625 1517.71 608.559 1519.96 601.693L1583.96 406.455C1586.21 399.589 1584.5 392.044 1579.49 386.812L1382.62 181.14C1379.69 178.071 1375.84 176.033 1371.64 175.335L1053.66 122.359C1048.45 121.492 1043.12 122.748 1038.85 125.862L851.691 262.504Z" stroke="url(#paint13_linear_107_3127)" stroke-width="2.97735"/>
</g>
<g opacity="0.2174">
<path d="M849.335 255.845C842.319 260.437 839.013 268.984 841.111 277.102L898.528 499.726C899.852 504.846 903.185 509.218 907.778 511.853L1184.37 670.732C1188.06 672.851 1192.35 673.717 1196.58 673.196L1476.39 638.59C1483.56 637.707 1489.66 632.94 1492.26 626.211L1565.91 435.834C1568.51 429.105 1567.21 421.485 1562.49 416.003L1378.82 202.088C1376.04 198.857 1372.29 196.616 1368.13 195.696L1056.63 127.073C1051.46 125.931 1046.05 126.922 1041.62 129.818L849.335 255.845Z" stroke="url(#paint14_linear_107_3127)" stroke-width="2.97735"/>
</g>
<g opacity="0.2319">
<path d="M847.803 249.996C840.59 254.218 836.859 262.541 838.505 270.735L883.395 494.367C884.435 499.554 887.539 504.109 891.984 506.99L1156.93 678.455C1160.52 680.782 1164.77 681.869 1169.04 681.556L1447.49 661.351C1454.69 660.827 1461.01 656.4 1463.95 649.827L1546.92 464.764C1549.87 458.191 1548.97 450.536 1544.57 444.814L1374.42 223.474C1371.81 220.078 1368.17 217.635 1364.04 216.5L1059.77 132.761C1054.66 131.36 1049.19 132.072 1044.63 134.746L847.803 249.996Z" stroke="url(#paint15_linear_107_3127)" stroke-width="2.97735"/>
</g>
<g opacity="0.2464">
<path d="M847.042 244.984C839.651 248.828 835.503 256.916 836.695 265.161L869.107 489.089C869.869 494.333 872.726 499.053 877.023 502.168L1129.78 685.443C1133.25 687.96 1137.46 689.279 1141.76 689.184L1418.11 683.149C1425.31 682.992 1431.84 678.907 1435.12 672.507L1527.06 493.218C1530.34 486.817 1529.84 479.131 1525.77 473.196L1369.4 245.26C1366.97 241.718 1363.44 239.069 1359.37 237.714L1063.04 139.411C1058.01 137.739 1052.5 138.183 1047.8 140.624L847.042 244.984Z" stroke="url(#paint16_linear_107_3127)" stroke-width="2.97735"/>
</g>
<g opacity="0.2609">
<path d="M846.974 240.81C839.43 244.259 834.876 252.101 835.617 260.362L855.655 483.905C856.131 489.199 858.732 494.071 862.863 497.421L1102.93 691.698C1106.28 694.413 1110.42 695.94 1114.73 696.067L1388.28 703.928C1395.47 704.133 1402.18 700.404 1405.78 694.193L1506.32 521.098C1509.93 514.887 1509.84 507.214 1506.1 501.071L1363.73 267.359C1361.49 263.68 1358.11 260.841 1354.09 259.274L1066.39 147.014C1061.43 145.085 1055.91 145.24 1051.07 147.45L846.974 240.81Z" stroke="url(#paint17_linear_107_3127)" stroke-width="2.97735"/>
</g>
<g opacity="0.2754">
<path d="M847.561 237.537C839.88 240.596 834.951 248.143 835.238 256.406L843.027 478.895C843.21 484.21 845.555 489.226 849.514 492.793L1076.42 697.248C1079.64 700.14 1083.71 701.908 1088.02 702.248L1358.07 723.691C1365.22 724.261 1372.12 720.879 1376.04 714.883L1484.76 548.404C1488.68 542.408 1489 534.733 1485.61 528.414L1357.41 289.776C1355.37 285.962 1352.11 282.932 1348.17 281.151L1069.75 155.575C1064.89 153.384 1059.36 153.253 1054.42 155.221L847.561 237.537Z" stroke="url(#paint18_linear_107_3127)" stroke-width="2.97735"/>
</g>
<g opacity="0.2899">
<path d="M848.759 235.18C840.96 237.843 835.668 245.087 835.503 253.327L831.206 474.083C831.105 479.408 833.172 484.557 836.941 488.34L1050.31 702.138C1053.38 705.216 1057.38 707.184 1061.68 707.747L1327.56 742.452C1334.66 743.374 1341.71 740.36 1345.93 734.586L1462.44 575.086C1466.66 569.312 1467.38 561.688 1464.35 555.205L1350.44 312.462C1348.6 308.532 1345.51 305.322 1341.64 303.333L1073.08 165.088C1068.33 162.648 1062.8 162.236 1057.76 163.952L848.759 235.18Z" stroke="url(#paint19_linear_107_3127)" stroke-width="2.97735"/>
</g>
<g opacity="0.3043">
<path d="M850.507 233.786C842.617 236.04 836.966 242.982 836.359 251.164L820.183 469.552C819.79 474.881 821.585 480.13 825.159 484.113L1024.62 706.413C1027.53 709.653 1031.44 711.848 1035.74 712.626L1296.82 760.201C1303.85 761.487 1311.02 758.834 1315.52 753.297L1439.39 601.14C1443.9 595.603 1445.04 588.048 1442.36 581.421L1342.82 335.419C1341.18 331.374 1338.24 327.987 1334.48 325.792L1076.35 175.561C1071.72 172.869 1066.21 172.184 1061.07 173.65L850.507 233.786Z" stroke="url(#paint20_linear_107_3127)" stroke-width="2.97735"/>
</g>
<g opacity="0.3188">
<path d="M852.715 233.337C844.749 235.189 838.785 241.778 837.734 249.888L809.924 465.282C809.237 470.583 810.749 475.956 814.11 480.12L999.376 710.043C1002.12 713.454 1005.92 715.842 1010.18 716.843L1265.85 776.884C1272.8 778.514 1280.08 776.256 1284.87 770.971L1415.65 626.479C1420.43 621.194 1421.96 613.724 1419.64 606.972L1334.49 358.534C1333.08 354.394 1330.32 350.85 1326.65 348.455L1079.46 186.952C1074.98 184.022 1069.49 183.052 1064.28 184.261L852.715 233.337Z" stroke="url(#paint21_linear_107_3127)" stroke-width="2.97735"/>
</g>
<g opacity="0.3333">
<path d="M855.363 233.867C847.349 235.307 841.063 241.56 839.582 249.566L800.391 461.336C799.414 466.609 800.65 472.047 803.788 476.395L974.609 713.08C977.181 716.651 980.874 719.243 985.097 720.458L1234.77 792.539C1241.61 794.516 1248.98 792.627 1254.02 787.615L1391.25 651.092C1396.29 646.079 1398.22 638.715 1396.28 631.867L1325.49 381.824C1324.3 377.594 1321.72 373.896 1318.16 371.305L1082.37 199.25C1078.04 196.09 1072.6 194.834 1067.33 195.784L855.363 233.867Z" stroke="url(#paint22_linear_107_3127)" stroke-width="2.97735"/>
</g>
<g opacity="0.3478">
<path d="M858.369 235.41C850.32 236.445 843.756 242.325 841.844 250.212L791.599 457.771C790.339 462.993 791.258 468.5 794.171 473.015L950.361 715.579C952.75 719.288 956.322 722.093 960.491 723.528L1203.61 807.19C1210.33 809.499 1217.78 807.998 1223.06 803.263L1366.28 674.986C1371.56 670.251 1373.86 663.02 1372.31 656.088L1315.82 405.258C1314.85 400.957 1312.45 397.098 1309.03 394.317L1085.06 212.463C1080.88 209.079 1075.52 207.548 1070.2 208.228L858.369 235.41Z" stroke="url(#paint23_linear_107_3127)" stroke-width="2.97735"/>
</g>
<g opacity="0.3623">
<path d="M861.682 237.929C853.626 238.552 846.78 244.067 844.455 251.805L783.474 454.581C781.927 459.728 782.562 465.299 785.233 469.974L926.643 717.534C928.839 721.386 932.282 724.384 936.393 726.03L1172.44 820.789C1179.02 823.43 1186.51 822.31 1192.03 817.865L1340.73 698.09C1346.24 693.645 1348.93 686.561 1347.75 679.574L1305.44 428.76C1304.71 424.393 1302.52 420.391 1299.22 417.424L1087.46 226.532C1083.46 222.927 1078.15 221.121 1072.79 221.535L861.682 237.929Z" stroke="url(#paint24_linear_107_3127)" stroke-width="2.97735"/>
</g>
<g opacity="0.3768">
<path d="M865.246 241.467C857.196 241.688 850.122 246.799 847.385 254.373L776.031 451.816C774.2 456.886 774.542 462.482 776.962 467.306L903.501 719.002C905.505 722.981 908.792 726.163 912.84 728.027L1141.33 833.375C1147.76 836.342 1155.27 835.611 1161 831.474L1314.7 720.407C1320.43 716.27 1323.49 709.36 1322.69 702.324L1294.4 452.315C1293.9 447.892 1291.91 443.767 1288.77 440.615L1089.52 241.455C1085.7 237.643 1080.5 235.561 1075.11 235.707L865.246 241.467Z" stroke="url(#paint25_linear_107_3127)" stroke-width="2.97735"/>
</g>
<g opacity="0.3913">
<path d="M868.995 246.031C860.98 245.845 853.675 250.563 850.546 257.944L769.224 449.532C767.116 454.496 767.144 460.129 769.314 465.08L880.948 720.038C882.744 724.139 885.874 727.492 889.834 729.568L1110.31 844.964C1116.57 848.24 1124.09 847.906 1130.01 844.08L1288.22 741.922C1294.14 738.096 1297.55 731.377 1297.14 724.321L1282.68 475.899C1282.41 471.436 1280.66 467.198 1277.66 463.874L1091.21 257.225C1087.59 253.21 1082.48 250.861 1077.08 250.74L868.995 246.031Z" stroke="url(#paint26_linear_107_3127)" stroke-width="2.97735"/>
</g>
<g opacity="0.4058">
<path d="M872.867 251.573C864.912 250.995 857.398 255.307 853.885 262.467L762.988 447.704C760.605 452.562 760.337 458.188 762.241 463.26L858.982 720.617C860.557 724.82 863.532 728.354 867.401 730.633L1079.43 855.562C1085.51 859.142 1093.03 859.178 1099.13 855.678L1261.32 762.594C1267.42 759.094 1271.19 752.581 1271.16 745.532L1270.26 499.433C1270.25 494.942 1268.7 490.591 1265.86 487.111L1092.46 273.75C1089.04 269.547 1084.05 266.939 1078.65 266.546L872.867 251.573Z" stroke="url(#paint27_linear_107_3127)" stroke-width="2.97735"/>
</g>
<g opacity="0.4203">
<path d="M876.813 258.157C868.924 257.186 861.241 261.076 857.353 268.009L757.345 446.423C754.697 451.144 754.117 456.757 755.758 461.932L837.654 720.84C839.017 725.139 841.812 728.843 845.58 731.321L1048.79 865.204C1054.67 869.074 1062.15 869.495 1068.41 866.323L1234.09 782.449C1240.35 779.277 1244.44 772.999 1244.8 765.972L1257.19 522.938C1257.42 518.434 1256.09 513.989 1253.44 510.346L1093.25 291.074C1090.05 286.688 1085.18 283.833 1079.81 283.172L876.813 258.157Z" stroke="url(#paint28_linear_107_3127)" stroke-width="2.97735"/>
</g>
<g opacity="0.4348">
<path d="M880.754 265.725C872.958 264.363 865.121 267.828 860.883 274.51L752.215 445.655C749.304 450.24 748.426 455.828 749.787 461.095L816.947 720.693C818.081 725.08 820.701 728.949 824.357 731.622L1018.39 873.885C1024.05 878.028 1031.49 878.844 1037.89 876.013L1206.53 801.451C1212.94 798.616 1217.35 792.565 1218.09 785.596L1243.44 546.335C1243.93 541.831 1242.83 537.29 1240.35 533.498L1093.53 309.12C1090.55 304.568 1085.82 301.456 1080.47 300.524L880.754 265.725Z" stroke="url(#paint29_linear_107_3127)" stroke-width="2.97735"/>
</g>
<g opacity="0.4493">
<path d="M884.66 274.277C876.982 272.542 869.004 275.58 864.426 281.984L747.597 445.453C744.437 449.873 743.241 455.429 744.325 460.76L796.911 720.241C797.811 724.705 800.248 728.708 803.777 731.585L988.324 881.64C993.758 886.059 1001.11 887.241 1007.64 884.753L1178.74 819.583C1185.27 817.095 1189.98 811.32 1191.1 804.406L1229.05 569.601C1229.78 565.106 1228.92 560.5 1226.63 556.568L1093.26 327.853C1090.52 323.152 1085.95 319.796 1080.65 318.598L884.66 274.277Z" stroke="url(#paint30_linear_107_3127)" stroke-width="2.97735"/>
</g>
<g opacity="0.4638">
<path d="M888.47 283.816C880.913 281.708 872.848 284.305 867.942 290.427L743.441 445.833C740.034 450.088 738.55 455.573 739.35 460.976L777.546 719.531C778.218 724.056 780.449 728.2 783.845 731.261L958.614 888.514C963.8 893.181 971.092 894.743 977.725 892.607L1150.75 836.883C1157.38 834.747 1162.38 829.227 1163.87 822.411L1214.02 592.721C1214.99 588.253 1214.39 583.586 1212.29 579.519L1092.43 347.264C1089.93 342.41 1085.52 338.822 1080.27 337.355L888.47 283.816Z" stroke="url(#paint31_linear_107_3127)" stroke-width="2.97735"/>
</g>
<g opacity="0.4783">
<path d="M892.126 294.302C884.721 291.837 876.572 293.998 871.362 299.808L739.717 446.822C736.069 450.887 734.295 456.31 734.801 461.75L758.872 718.586C759.301 723.163 761.32 727.449 764.574 730.688L929.333 894.53C934.271 899.438 941.433 901.357 948.158 899.574L1122.6 853.317C1129.33 851.533 1134.6 846.318 1136.46 839.608L1198.38 615.655C1199.6 611.229 1199.23 606.506 1197.34 602.318L1090.99 367.301C1088.73 362.325 1084.5 358.493 1079.32 356.77L892.126 294.302Z" stroke="url(#paint32_linear_107_3127)" stroke-width="2.97735"/>
</g>
<g opacity="0.4928">
<path d="M895.588 305.736C888.349 302.913 880.14 304.636 874.647 310.13L736.391 448.423C732.526 452.294 730.437 457.613 730.66 463.082L740.881 717.441C741.064 722.056 742.87 726.46 745.975 729.881L900.517 899.702C905.187 904.841 912.226 907.124 919.014 905.7L1094.37 868.903C1101.15 867.478 1106.69 862.557 1108.9 855.974L1182.13 638.356C1183.6 633.975 1183.49 629.214 1181.8 624.915L1088.91 387.903C1086.92 382.806 1082.87 378.776 1077.77 376.786L895.588 305.736Z" stroke="url(#paint33_linear_107_3127)" stroke-width="2.97735"/>
</g>
<g opacity="0.5072">
<path d="M898.782 318.079C891.729 314.92 883.482 316.204 877.724 321.358L733.406 450.646C729.321 454.302 726.949 459.516 726.878 465.011L723.575 716.157C723.51 720.798 725.107 725.308 728.051 728.893L872.196 904.092C876.598 909.445 883.492 912.063 890.324 911L1066.07 883.631C1072.91 882.567 1078.68 877.976 1081.24 871.538L1165.29 660.804C1167 656.493 1167.14 651.713 1165.67 647.311L1086.16 409.062C1084.42 403.849 1080.58 399.602 1075.58 397.361L898.782 318.079Z" stroke="url(#paint34_linear_107_3127)" stroke-width="2.97735"/>
</g>
<g opacity="0.5217">
<path d="M901.662 331.324C894.808 327.83 886.559 328.676 880.557 333.487L730.738 453.52C726.447 456.959 723.793 462.031 723.425 467.526L706.964 714.75C706.658 719.402 708.011 724.032 710.795 727.773L844.407 907.712C848.529 913.256 855.256 916.233 862.123 915.53L1037.77 897.529C1044.64 896.825 1050.62 892.546 1053.53 886.281L1147.87 682.981C1149.84 678.753 1150.22 673.945 1148.98 669.452L1082.71 430.706C1081.24 425.399 1077.62 420.97 1072.72 418.473L901.662 331.324Z" stroke="url(#paint35_linear_107_3127)" stroke-width="2.97735"/>
</g>
<g opacity="0.5362">
<path d="M904.198 345.421C897.56 341.614 889.32 342.024 883.094 346.472L728.345 457.042C723.869 460.241 720.933 465.179 720.278 470.658L691.061 713.279C690.502 717.94 691.621 722.634 694.228 726.536L817.209 910.621C821.035 916.352 827.584 919.646 834.457 919.303L1009.51 910.584C1016.39 910.242 1022.58 906.313 1025.81 900.231L1129.89 704.837C1132.1 700.696 1132.75 695.914 1131.73 691.331L1078.55 452.814C1077.35 447.427 1073.94 442.805 1069.17 440.067L904.198 345.421Z" stroke="url(#paint36_linear_107_3127)" stroke-width="2.97735"/>
</g>
<g opacity="0.5507">
<path d="M906.322 360.362C899.914 356.256 891.717 356.235 885.288 360.308L726.186 461.222C721.527 464.171 718.326 468.959 717.376 474.406L675.837 711.767C675.025 716.413 675.907 721.191 678.328 725.234L790.623 912.852C794.154 918.743 800.5 922.365 807.361 922.382L981.331 922.834C988.192 922.852 994.567 919.263 998.129 913.391L1111.39 726.358C1113.83 722.327 1114.74 717.554 1113.96 712.904L1073.65 475.331C1072.73 469.879 1069.55 465.074 1064.91 462.1L906.322 360.362Z" stroke="url(#paint37_linear_107_3127)" stroke-width="2.97735"/>
</g>
<g opacity="0.5652">
<path d="M908.007 376.087C901.842 371.684 893.71 371.237 887.099 374.937L724.217 466.045C719.39 468.746 715.933 473.359 714.687 478.758L661.297 710.253C660.231 714.871 660.881 719.72 663.106 723.907L764.676 914.441C767.895 920.487 774.034 924.403 780.863 924.779L953.281 934.264C960.11 934.639 966.652 931.421 970.514 925.764L1092.36 747.52C1095.03 743.603 1096.21 738.854 1095.66 734.148L1067.99 498.193C1067.35 492.69 1064.4 487.725 1059.9 484.511L908.007 376.087Z" stroke="url(#paint38_linear_107_3127)" stroke-width="2.97735"/>
</g>
<g opacity="0.5797">
<path d="M909.214 392.582C903.305 387.907 895.25 387.039 888.491 390.35L722.424 471.549C717.442 473.98 713.737 478.414 712.199 483.75L647.467 708.79C646.148 713.376 646.541 718.273 648.574 722.583L739.411 915.442C742.323 921.618 748.228 925.837 755.018 926.568L925.418 944.925C932.207 945.657 938.876 942.792 943.036 937.379L1072.87 768.292C1075.77 764.513 1077.2 759.812 1076.88 755.051L1061.57 521.387C1061.2 515.846 1058.53 510.724 1054.18 507.288L909.214 392.582Z" stroke="url(#paint39_linear_107_3127)" stroke-width="2.97735"/>
</g>
<g opacity="0.5942">
<path d="M909.908 409.797C904.276 404.866 896.32 403.585 889.425 406.499L720.76 477.708C715.638 479.872 711.695 484.104 709.868 489.361L634.312 707.4C632.741 711.929 632.891 716.885 634.715 721.309L714.868 915.89C717.467 922.19 723.127 926.677 729.848 927.759L897.768 954.802C904.488 955.885 911.282 953.403 915.727 948.237L1052.92 788.658C1056.04 785.03 1057.72 780.371 1057.65 775.577L1054.38 544.843C1054.31 539.28 1051.87 534.021 1047.69 530.358L909.908 409.797Z" stroke="url(#paint40_linear_107_3127)" stroke-width="2.97735"/>
</g>
<g opacity="0.6087">
<path d="M910.053 427.713C904.699 422.54 896.872 420.855 889.863 423.367L719.188 484.541C713.952 486.421 709.752 490.432 707.65 495.595L621.831 706.139C620.01 710.598 619.894 715.585 621.51 720.126L691.05 915.847C693.322 922.243 698.742 927.009 705.365 928.435L870.377 963.957C877.01 965.385 883.912 963.271 888.614 958.376L1032.53 808.606C1035.87 805.132 1037.82 800.539 1037.99 795.726L1046.41 568.519C1046.61 562.948 1044.44 557.564 1040.44 553.696L910.053 427.713Z" stroke="url(#paint41_linear_107_3127)" stroke-width="2.97735"/>
</g>
<g opacity="0.6232">
<path d="M909.603 446.286C904.537 440.886 896.87 438.811 889.771 440.917L717.659 492.041C712.314 493.628 707.898 497.421 705.516 502.474L610.011 705.045C607.941 709.43 607.572 714.417 608.962 719.062L667.984 915.373C669.936 921.85 675.077 926.855 681.606 928.623L843.285 972.395C849.815 974.162 856.788 972.437 861.741 967.829L1011.73 828.103C1015.27 824.795 1017.48 820.305 1017.9 815.475L1037.64 592.39C1038.13 586.826 1036.22 581.32 1032.41 577.253L909.603 446.286Z" stroke="url(#paint42_linear_107_3127)" stroke-width="2.97735"/>
</g>
<g opacity="0.6377">
<path d="M908.517 465.438C903.757 459.83 896.24 457.366 889.085 459.068L716.135 500.167C710.698 501.456 706.066 505.016 703.41 509.944L598.808 704.101C596.492 708.398 595.859 713.401 597.032 718.132L645.662 914.453C647.278 921.003 652.156 926.25 658.564 928.351L816.503 980.121C822.91 982.222 829.947 980.881 835.128 976.559L990.539 847.12C994.285 844.002 996.737 839.594 997.413 834.76L1028.04 616.356C1028.82 610.812 1027.21 605.205 1023.59 600.947L908.517 465.438Z" stroke="url(#paint43_linear_107_3127)" stroke-width="2.97735"/>
</g>
<g opacity="0.6522">
<path d="M906.795 485.179C902.339 479.377 895.031 476.55 887.831 477.843L714.598 508.966C709.082 509.961 704.251 513.265 701.327 518.053L588.259 703.425C585.704 707.61 584.808 712.606 585.754 717.423L624.149 913.222C625.441 919.822 630.03 925.279 636.289 927.7L790.116 987.208C796.375 989.629 803.442 988.68 808.84 984.669L969.008 865.682C972.948 862.756 975.648 858.458 976.575 853.643L1017.68 640.434C1018.74 634.925 1017.4 629.233 1013.99 624.785L906.795 485.179Z" stroke="url(#paint44_linear_107_3127)" stroke-width="2.97735"/>
</g>
<g opacity="0.6667">
<path d="M904.413 505.423C900.279 499.448 893.167 496.26 885.957 497.148L713.011 518.395C707.436 519.081 702.415 522.129 699.231 526.762L578.32 702.989C575.528 707.059 574.369 712.034 575.085 716.915L603.433 911.667C604.401 918.301 608.682 923.972 614.787 926.709L764.11 993.657C770.214 996.393 777.296 995.817 782.893 992.127L947.155 883.73C951.276 881.017 954.22 876.842 955.4 872.05L1006.53 664.535C1007.87 659.075 1006.81 653.304 1003.61 648.684L904.413 505.423Z" stroke="url(#paint45_linear_107_3127)" stroke-width="2.97735"/>
</g>
<g opacity="0.6812">
<path d="M901.316 526.132C897.501 519.997 890.622 516.469 883.413 516.951L711.305 528.424C705.687 528.798 700.505 531.574 697.069 536.039L568.954 702.826C565.928 706.767 564.501 711.717 564.97 716.656L583.498 909.849C584.133 916.495 588.102 922.354 594.036 925.397L738.51 999.483C744.443 1002.53 751.527 1002.33 757.294 998.971L924.981 901.27C929.276 898.773 932.462 894.725 933.897 889.968L994.563 688.593C996.183 683.197 995.413 677.369 992.439 672.589L901.316 526.132Z" stroke="url(#paint46_linear_107_3127)" stroke-width="2.97735"/>
</g>
<g opacity="0.6957">
<path d="M897.525 547.275C894.037 541.011 887.398 537.155 880.228 537.229L709.505 539.089C703.863 539.15 698.52 541.649 694.841 545.931L560.163 703.009C556.911 706.808 555.23 711.691 555.466 716.687L564.387 907.842C564.697 914.49 568.352 920.51 574.1 923.848L713.399 1004.76C719.147 1008.09 726.187 1008.29 732.116 1005.26L902.574 918.293C907.031 916.022 910.439 912.143 912.128 907.436L981.835 712.621C983.731 707.304 983.254 701.424 980.511 696.494L897.525 547.275Z" stroke="url(#paint47_linear_107_3127)" stroke-width="2.97735"/>
</g>
<g opacity="0.7101">
<path d="M893.025 568.829C889.873 562.443 883.489 558.274 876.375 557.955L707.555 550.362C701.906 550.106 696.422 552.311 692.504 556.406L551.947 703.556C548.466 707.194 546.527 712.029 546.516 717.065L546.111 905.701C546.097 912.32 549.437 918.514 554.976 922.131L688.768 1009.51C694.307 1013.13 701.321 1013.7 707.376 1011.02L879.928 934.818C884.535 932.783 888.182 929.064 890.114 924.414L968.349 736.561C970.532 731.333 970.337 725.419 967.833 720.35L893.025 568.829Z" stroke="url(#paint48_linear_107_3127)" stroke-width="2.97735"/>
</g>
<g opacity="0.7246">
<path d="M887.764 590.697C884.942 584.202 878.845 579.748 871.8 579.035L705.411 562.215C699.773 561.643 694.158 563.553 690.016 567.439L544.25 704.476C540.556 707.946 538.345 712.72 538.09 717.776L528.632 903.451C528.298 910.041 531.303 916.357 536.627 920.246L664.637 1013.76C669.961 1017.65 676.891 1018.59 683.067 1016.27L857.074 950.799C861.813 949.018 865.689 945.46 867.871 940.886L954.086 760.346C956.538 755.225 956.65 749.296 954.391 744.098L887.764 590.697Z" stroke="url(#paint49_linear_107_3127)" stroke-width="2.97735"/>
</g>
<g opacity="0.7391">
<path d="M881.745 612.83C879.259 606.257 873.453 601.531 866.512 600.429L703.044 574.61C697.434 573.722 691.711 575.322 687.358 578.988L537.035 705.777C533.137 709.066 530.667 713.749 530.159 718.821L511.962 901.118C511.312 907.663 513.971 914.091 519.068 918.24L641.014 1017.52C646.111 1021.66 652.944 1022.96 659.221 1021L834.038 966.206C838.901 964.679 842.994 961.318 845.424 956.833L939.079 783.912C941.794 778.912 942.192 772.977 940.185 767.664L881.745 612.83Z" stroke="url(#paint50_linear_107_3127)" stroke-width="2.97735"/>
</g>
<g opacity="0.7536">
<path d="M874.994 635.22C872.85 628.579 867.331 623.583 860.51 622.11L700.451 587.559C694.887 586.357 689.05 587.635 684.504 591.075L530.299 707.53C526.205 710.626 523.481 715.203 522.725 720.285L496.099 898.807C495.129 905.285 497.468 911.804 502.317 916.193L617.959 1020.86C622.807 1025.25 629.527 1026.93 635.876 1025.32L810.869 981.088C815.85 979.831 820.134 976.665 822.809 972.284L923.364 807.27C926.328 802.398 927.027 796.47 925.278 791.054L874.994 635.22Z" stroke="url(#paint51_linear_107_3127)" stroke-width="2.97735"/>
</g>
<g opacity="0.7681">
<path d="M867.475 657.795C865.674 651.103 860.468 645.871 853.786 644.035L697.575 601.032C692.075 599.518 686.18 600.488 681.438 603.678L524.013 709.73C519.718 712.623 516.751 717.088 515.738 722.159L481.033 896.524C479.763 902.919 481.75 909.529 486.34 914.143L595.456 1023.83C600.054 1028.45 606.646 1030.46 613.047 1029.23L787.59 995.426C792.666 994.439 797.154 991.502 800.069 987.223L906.937 830.35C910.151 825.625 911.152 819.735 909.66 814.22L867.475 657.795Z" stroke="url(#paint52_linear_107_3127)" stroke-width="2.97735"/>
</g>
<g opacity="0.7826">
<path d="M859.184 680.495C857.717 673.778 852.842 668.335 846.326 666.141L694.419 614.994C688.992 613.164 683.033 613.816 678.117 616.751L518.145 712.406C513.675 715.083 510.439 719.421 509.174 724.477L466.749 894.334C465.17 900.632 466.826 907.293 471.154 912.125L573.532 1026.42C577.86 1031.25 584.299 1033.63 590.732 1032.75L764.218 1009.21C769.382 1008.51 774.056 1005.78 777.207 1001.63L889.825 853.107C893.282 848.542 894.583 842.691 893.359 837.096L859.184 680.495Z" stroke="url(#paint53_linear_107_3127)" stroke-width="2.97735"/>
</g>
<g opacity="0.7971">
<path d="M850.145 703.31C849.011 696.583 844.467 690.942 838.136 688.401L690.943 629.451C685.616 627.317 679.626 627.632 674.541 630.311L512.657 715.58C508.008 718.029 504.545 722.236 503.028 727.265L453.241 892.29C451.373 898.478 452.682 905.186 456.731 910.213L552.196 1028.73C556.245 1033.76 562.514 1036.46 568.958 1035.95L740.807 1022.46C746.043 1022.05 750.885 1019.55 754.268 1015.53L872.066 875.533C875.766 871.134 877.344 865.341 876.393 859.681L850.145 703.31Z" stroke="url(#paint54_linear_107_3127)" stroke-width="2.97735"/>
</g>
<g opacity="0.8116">
<path d="M840.336 726.185C839.546 719.467 835.328 713.63 829.198 710.771L687.124 644.363C681.912 641.93 675.888 641.912 670.655 644.319L507.513 719.287C502.711 721.499 498.99 725.55 497.22 730.538L440.471 890.434C438.317 896.491 439.286 903.222 443.048 908.428L531.441 1030.76C535.203 1035.96 541.284 1038.99 547.717 1038.85L717.344 1035.17C722.636 1035.06 727.656 1032.81 731.258 1028.93L853.654 897.575C857.582 893.362 859.456 887.637 858.782 881.924L840.336 726.185Z" stroke="url(#paint55_linear_107_3127)" stroke-width="2.97735"/>
</g>
<g opacity="0.8261">
<path d="M829.797 749.04C829.332 742.346 825.471 736.367 819.561 733.189L682.954 659.701C677.869 656.966 671.844 656.615 666.478 658.741L502.698 723.507C497.741 725.469 493.804 729.363 491.781 734.298L428.451 888.792C426.025 894.713 426.641 901.448 430.108 906.816L511.294 1032.55C514.761 1037.91 520.651 1041.26 527.046 1041.48L693.914 1047.33C699.244 1047.52 704.407 1045.52 708.235 1041.81L834.655 919.188C838.8 915.173 840.954 909.528 840.56 903.776L829.797 749.04Z" stroke="url(#paint56_linear_107_3127)" stroke-width="2.97735"/>
</g>
<g opacity="0.8406">
<path d="M818.512 771.861C818.373 765.215 814.857 759.088 809.189 755.616L678.415 675.449C673.488 672.423 667.465 671.735 661.977 673.564L498.186 728.274C493.086 729.977 488.917 733.703 486.641 738.572L417.136 887.42C414.445 893.194 414.724 899.893 417.894 905.417L491.767 1034.14C494.932 1039.65 500.586 1043.29 506.929 1043.88L670.511 1058.96C675.864 1059.45 681.179 1057.72 685.222 1054.18L815.09 940.36C819.438 936.544 821.888 931.006 821.761 925.225L818.512 771.861Z" stroke="url(#paint57_linear_107_3127)" stroke-width="2.97735"/>
</g>
<g opacity="0.8551">
<path d="M806.502 794.598C806.679 788.006 803.527 781.779 798.109 778.019L673.489 691.559C668.728 688.256 662.731 687.24 657.14 688.774L493.929 733.599C488.701 735.033 484.305 738.577 481.778 743.367L406.52 886.347C403.569 891.953 403.51 898.638 406.368 904.283L472.838 1035.58C475.696 1041.22 481.119 1045.13 487.383 1046.07L647.17 1070.06C652.526 1070.86 657.985 1069.41 662.236 1066.05L794.984 961.053C799.53 957.455 802.257 952.011 802.413 946.218L806.502 794.598Z" stroke="url(#paint58_linear_107_3127)" stroke-width="2.97735"/>
</g>
<g opacity="0.8696">
<path d="M793.793 817.204C794.283 810.69 791.482 804.356 786.335 800.335L668.148 708.023C663.564 704.442 657.63 703.09 651.944 704.328L489.893 739.492C484.551 740.647 479.932 743.987 477.16 748.695L396.557 885.622C393.36 891.058 392.978 897.684 395.523 903.442L454.525 1036.89C457.071 1042.65 462.23 1046.83 468.402 1048.12L623.922 1080.64C629.269 1081.76 634.852 1080.6 639.302 1077.43L774.368 981.228C779.11 977.856 782.103 972.556 782.54 966.756L793.793 817.204Z" stroke="url(#paint59_linear_107_3127)" stroke-width="2.97735"/>
</g>
<g opacity="0.8841">
<path d="M780.373 839.628C781.165 833.198 778.726 826.795 773.861 822.531L662.38 724.787C658.002 720.945 652.13 719.268 646.371 720.191L486.035 745.94C480.594 746.81 475.766 749.942 472.751 754.553L387.221 885.256C383.793 890.498 383.077 897.068 385.306 902.921L436.798 1038.11C439.028 1043.96 443.933 1048.39 449.979 1050.02L600.785 1090.7C606.104 1092.14 611.792 1091.26 616.434 1088.29L753.275 1000.86C758.189 997.717 761.453 992.549 762.166 986.768L780.373 839.628Z" stroke="url(#paint60_linear_107_3127)" stroke-width="2.97735"/>
</g>
<g opacity="0.8986">
<path d="M766.293 861.874C767.382 855.551 765.305 849.099 760.73 844.6L656.185 741.877C652.018 737.787 646.233 735.775 640.421 736.389L482.335 753.012C476.81 753.588 471.779 756.489 468.523 760.993L378.491 885.336C374.834 890.378 373.806 896.858 375.716 902.789L419.682 1039.31C421.592 1045.24 426.206 1049.89 432.121 1051.86L577.796 1100.29C583.068 1102.05 588.85 1101.48 593.673 1098.72L731.748 1019.97C736.826 1017.07 740.346 1012.05 741.344 1006.3L766.293 861.874Z" stroke="url(#paint61_linear_107_3127)" stroke-width="2.97735"/>
</g>
<g opacity="0.913">
<path d="M751.56 883.843C752.939 877.64 751.224 871.17 746.952 866.465L649.544 759.22C645.609 754.882 639.931 752.54 634.08 752.831L478.761 760.634C473.158 760.913 467.94 763.59 464.447 767.973L370.335 885.838C366.473 890.677 365.122 897.069 366.709 903.051L403.149 1040.47C404.736 1046.46 409.076 1051.34 414.828 1053.63L554.976 1109.38C560.182 1111.45 566.041 1111.19 571.047 1108.66L709.824 1038.47C715.05 1035.83 718.822 1030.98 720.091 1025.26L751.56 883.843Z" stroke="url(#paint62_linear_107_3127)" stroke-width="2.97735"/>
</g>
<g opacity="0.9275">
<path d="M736.201 905.564C737.86 899.494 736.498 893.006 732.54 888.115L642.461 776.809C638.765 772.249 633.211 769.582 627.341 769.558L475.27 768.877C469.605 768.853 464.218 771.282 460.481 775.534L362.703 886.84C358.636 891.462 356.998 897.732 358.262 903.757L387.208 1041.7C388.473 1047.72 392.493 1052.81 398.075 1055.4L532.349 1118.01C537.48 1120.4 543.389 1120.46 548.567 1118.16L687.536 1056.41C692.901 1054.03 696.914 1049.35 698.465 1043.69L736.201 905.564Z" stroke="url(#paint63_linear_107_3127)" stroke-width="2.97735"/>
</g>
<g opacity="0.942">
<path d="M720.256 926.943C722.176 921.031 721.165 914.543 717.539 909.493L634.943 794.598C631.508 789.816 626.098 786.842 620.215 786.493L471.844 777.69C466.143 777.355 460.577 779.519 456.612 783.635L355.591 888.327C351.342 892.731 349.405 898.87 350.345 904.912L371.844 1042.96C372.784 1049 376.495 1054.25 381.883 1057.16L509.956 1126.18C514.984 1128.9 520.945 1129.27 526.274 1127.22L664.943 1073.71C670.441 1071.59 674.69 1067.11 676.509 1061.51L720.256 926.943Z" stroke="url(#paint64_linear_107_3127)" stroke-width="2.97735"/>
</g>
<g opacity="0.9565">
<path d="M703.726 947.97C705.903 942.213 705.243 935.765 701.942 930.57L626.943 812.55C623.78 807.563 618.532 804.278 612.664 803.612L468.428 787.083C462.698 786.424 456.968 788.332 452.768 792.289L348.933 890.346C344.512 894.516 342.295 900.509 342.914 906.549L357.031 1044.3C357.65 1050.34 361.037 1055.77 366.213 1058.96L487.777 1133.91C492.693 1136.93 498.691 1137.64 504.168 1135.83L642.053 1090.39C647.663 1088.53 652.136 1084.25 654.222 1078.74L703.726 947.97Z" stroke="url(#paint65_linear_107_3127)" stroke-width="2.97735"/>
</g>
<g opacity="0.971">
<path d="M686.638 968.602C689.064 963.022 688.745 956.633 685.777 951.312L618.481 830.656C615.593 825.489 610.523 821.902 604.688 820.91L464.979 797.053C459.239 796.077 453.356 797.705 448.937 801.501L342.687 892.897C338.108 896.838 335.61 902.652 335.91 908.685L342.739 1045.78C343.038 1051.8 346.102 1057.35 351.051 1060.82L465.857 1141.2C470.63 1144.54 476.647 1145.58 482.261 1144.04L618.908 1106.42C624.616 1104.85 629.304 1100.78 631.664 1095.35L686.638 968.602Z" stroke="url(#paint66_linear_107_3127)" stroke-width="2.97735"/>
</g>
<g opacity="0.9855">
<path d="M669.052 988.864C671.702 983.462 671.719 977.139 669.096 971.722L609.56 848.899C606.968 843.556 602.104 839.689 596.32 838.372L461.489 807.635C455.746 806.329 449.724 807.668 445.092 811.301L336.843 896.055C332.127 899.751 329.361 905.405 329.345 911.392L328.992 1047.43C328.977 1053.42 331.714 1059.09 336.41 1062.81L444.218 1148.12C448.831 1151.78 454.846 1153.15 460.596 1151.87L595.584 1121.84C601.375 1120.55 606.26 1116.7 608.879 1111.37L669.052 988.864Z" stroke="url(#paint67_linear_107_3127)" stroke-width="2.97735"/>
</g>
<path d="M650.993 1008.67C653.866 1003.47 654.21 997.228 651.924 991.737L600.185 867.235C597.9 861.745 593.248 857.587 587.532 855.947L457.928 818.777C452.213 817.137 446.065 818.188 441.215 821.634L331.343 899.779C326.494 903.225 323.479 908.697 323.153 914.633L315.747 1049.26C315.42 1055.2 317.817 1060.96 322.259 1064.91L422.896 1154.65C427.338 1158.61 433.334 1160.32 439.195 1159.32L572.094 1136.58C577.956 1135.58 583.036 1131.96 585.91 1126.75L650.993 1008.67Z" stroke="url(#paint68_linear_107_3127)" stroke-width="2.97735"/>
</g>
<defs>
<linearGradient id="paint0_linear_107_3127" x1="1100.82" y1="578.828" x2="1225.35" y2="-170.662" gradientUnits="userSpaceOnUse">
<stop stop-color="#793DF1"/>
<stop offset="0.3" stop-color="#0542FE"/>
<stop offset="1" stop-color="#01175E"/>
</linearGradient>
<linearGradient id="paint1_linear_107_3127" x1="1073.73" y1="571.932" x2="1237.34" y2="-165.057" gradientUnits="userSpaceOnUse">
<stop stop-color="#793DF1"/>
<stop offset="0.3" stop-color="#0542FE"/>
<stop offset="1" stop-color="#01175E"/>
</linearGradient>
<linearGradient id="paint2_linear_107_3127" x1="1047.69" y1="564.454" x2="1249.42" y2="-158.003" gradientUnits="userSpaceOnUse">
<stop stop-color="#793DF1"/>
<stop offset="0.3" stop-color="#0542FE"/>
<stop offset="1" stop-color="#01175E"/>
</linearGradient>
<linearGradient id="paint3_linear_107_3127" x1="1022.72" y1="556.543" x2="1261.5" y2="-149.419" gradientUnits="userSpaceOnUse">
<stop stop-color="#793DF1"/>
<stop offset="0.3" stop-color="#0542FE"/>
<stop offset="1" stop-color="#01175E"/>
</linearGradient>
<linearGradient id="paint4_linear_107_3127" x1="998.823" y1="548.186" x2="1273.48" y2="-139.387" gradientUnits="userSpaceOnUse">
<stop stop-color="#793DF1"/>
<stop offset="0.3" stop-color="#0542FE"/>
<stop offset="1" stop-color="#01175E"/>
</linearGradient>
<linearGradient id="paint5_linear_107_3127" x1="976.041" y1="539.516" x2="1285.31" y2="-127.856" gradientUnits="userSpaceOnUse">
<stop stop-color="#793DF1"/>
<stop offset="0.3" stop-color="#0542FE"/>
<stop offset="1" stop-color="#01175E"/>
</linearGradient>
<linearGradient id="paint6_linear_107_3127" x1="954.352" y1="530.523" x2="1296.87" y2="-114.912" gradientUnits="userSpaceOnUse">
<stop stop-color="#793DF1"/>
<stop offset="0.3" stop-color="#0542FE"/>
<stop offset="1" stop-color="#01175E"/>
</linearGradient>
<linearGradient id="paint7_linear_107_3127" x1="933.776" y1="521.312" x2="1308.1" y2="-100.542" gradientUnits="userSpaceOnUse">
<stop stop-color="#793DF1"/>
<stop offset="0.3" stop-color="#0542FE"/>
<stop offset="1" stop-color="#01175E"/>
</linearGradient>
<linearGradient id="paint8_linear_107_3127" x1="914.323" y1="511.932" x2="1318.92" y2="-84.785" gradientUnits="userSpaceOnUse">
<stop stop-color="#793DF1"/>
<stop offset="0.3" stop-color="#0542FE"/>
<stop offset="1" stop-color="#01175E"/>
</linearGradient>
<linearGradient id="paint9_linear_107_3127" x1="895.963" y1="502.436" x2="1329.24" y2="-67.6843" gradientUnits="userSpaceOnUse">
<stop stop-color="#793DF1"/>
<stop offset="0.3" stop-color="#0542FE"/>
<stop offset="1" stop-color="#01175E"/>
</linearGradient>
<linearGradient id="paint10_linear_107_3127" x1="878.708" y1="492.881" x2="1338.99" y2="-49.2783" gradientUnits="userSpaceOnUse">
<stop stop-color="#793DF1"/>
<stop offset="0.3" stop-color="#0542FE"/>
<stop offset="1" stop-color="#01175E"/>
</linearGradient>
<linearGradient id="paint11_linear_107_3127" x1="862.541" y1="483.363" x2="1348.09" y2="-29.575" gradientUnits="userSpaceOnUse">
<stop stop-color="#793DF1"/>
<stop offset="0.3" stop-color="#0542FE"/>
<stop offset="1" stop-color="#01175E"/>
</linearGradient>
<linearGradient id="paint12_linear_107_3127" x1="847.468" y1="473.912" x2="1356.5" y2="-8.65001" gradientUnits="userSpaceOnUse">
<stop stop-color="#793DF1"/>
<stop offset="0.3" stop-color="#0542FE"/>
<stop offset="1" stop-color="#01175E"/>
</linearGradient>
<linearGradient id="paint13_linear_107_3127" x1="833.461" y1="464.589" x2="1364.12" y2="13.4526" gradientUnits="userSpaceOnUse">
<stop stop-color="#793DF1"/>
<stop offset="0.3" stop-color="#0542FE"/>
<stop offset="1" stop-color="#01175E"/>
</linearGradient>
<linearGradient id="paint14_linear_107_3127" x1="820.125" y1="456.42" x2="1370.53" y2="37.6497" gradientUnits="userSpaceOnUse">
<stop stop-color="#793DF1"/>
<stop offset="0.3" stop-color="#0542FE"/>
<stop offset="1" stop-color="#01175E"/>
</linearGradient>
<linearGradient id="paint15_linear_107_3127" x1="808.146" y1="447.498" x2="1376.36" y2="61.9202" gradientUnits="userSpaceOnUse">
<stop stop-color="#793DF1"/>
<stop offset="0.3" stop-color="#0542FE"/>
<stop offset="1" stop-color="#01175E"/>
</linearGradient>
<linearGradient id="paint16_linear_107_3127" x1="797.179" y1="438.873" x2="1381.24" y2="87.2024" gradientUnits="userSpaceOnUse">
<stop stop-color="#793DF1"/>
<stop offset="0.3" stop-color="#0542FE"/>
<stop offset="1" stop-color="#01175E"/>
</linearGradient>
<linearGradient id="paint17_linear_107_3127" x1="787.184" y1="430.566" x2="1385.11" y2="113.406" gradientUnits="userSpaceOnUse">
<stop stop-color="#793DF1"/>
<stop offset="0.3" stop-color="#0542FE"/>
<stop offset="1" stop-color="#01175E"/>
</linearGradient>
<linearGradient id="paint18_linear_107_3127" x1="778.137" y1="422.643" x2="1387.92" y2="140.478" gradientUnits="userSpaceOnUse">
<stop stop-color="#793DF1"/>
<stop offset="0.3" stop-color="#0542FE"/>
<stop offset="1" stop-color="#01175E"/>
</linearGradient>
<linearGradient id="paint19_linear_107_3127" x1="770.016" y1="415.158" x2="1389.63" y2="168.36" gradientUnits="userSpaceOnUse">
<stop stop-color="#793DF1"/>
<stop offset="0.3" stop-color="#0542FE"/>
<stop offset="1" stop-color="#01175E"/>
</linearGradient>
<linearGradient id="paint20_linear_107_3127" x1="762.799" y1="408.179" x2="1390.21" y2="197.003" gradientUnits="userSpaceOnUse">
<stop stop-color="#793DF1"/>
<stop offset="0.3" stop-color="#0542FE"/>
<stop offset="1" stop-color="#01175E"/>
</linearGradient>
<linearGradient id="paint21_linear_107_3127" x1="756.418" y1="401.695" x2="1389.61" y2="226.282" gradientUnits="userSpaceOnUse">
<stop stop-color="#793DF1"/>
<stop offset="0.3" stop-color="#0542FE"/>
<stop offset="1" stop-color="#01175E"/>
</linearGradient>
<linearGradient id="paint22_linear_107_3127" x1="750.851" y1="395.773" x2="1387.8" y2="256.148" gradientUnits="userSpaceOnUse">
<stop stop-color="#793DF1"/>
<stop offset="0.3" stop-color="#0542FE"/>
<stop offset="1" stop-color="#01175E"/>
</linearGradient>
<linearGradient id="paint23_linear_107_3127" x1="746.776" y1="391.258" x2="1385.47" y2="287.335" gradientUnits="userSpaceOnUse">
<stop stop-color="#793DF1"/>
<stop offset="0.3" stop-color="#0542FE"/>
<stop offset="1" stop-color="#01175E"/>
</linearGradient>
<linearGradient id="paint24_linear_107_3127" x1="742.677" y1="386.604" x2="1381.13" y2="318.184" gradientUnits="userSpaceOnUse">
<stop stop-color="#793DF1"/>
<stop offset="0.3" stop-color="#0542FE"/>
<stop offset="1" stop-color="#01175E"/>
</linearGradient>
<linearGradient id="paint25_linear_107_3127" x1="739.282" y1="382.618" x2="1375.52" y2="349.391" gradientUnits="userSpaceOnUse">
<stop stop-color="#793DF1"/>
<stop offset="0.3" stop-color="#0542FE"/>
<stop offset="1" stop-color="#01175E"/>
</linearGradient>
<linearGradient id="paint26_linear_107_3127" x1="736.531" y1="379.34" x2="1368.63" y2="380.889" gradientUnits="userSpaceOnUse">
<stop stop-color="#793DF1"/>
<stop offset="0.3" stop-color="#0542FE"/>
<stop offset="1" stop-color="#01175E"/>
</linearGradient>
<linearGradient id="paint27_linear_107_3127" x1="734.368" y1="376.754" x2="1360.43" y2="412.557" gradientUnits="userSpaceOnUse">
<stop stop-color="#793DF1"/>
<stop offset="0.3" stop-color="#0542FE"/>
<stop offset="1" stop-color="#01175E"/>
</linearGradient>
<linearGradient id="paint28_linear_107_3127" x1="732.773" y1="374.942" x2="1350.95" y2="444.37" gradientUnits="userSpaceOnUse">
<stop stop-color="#793DF1"/>
<stop offset="0.3" stop-color="#0542FE"/>
<stop offset="1" stop-color="#01175E"/>
</linearGradient>
<linearGradient id="paint29_linear_107_3127" x1="731.671" y1="373.88" x2="1340.15" y2="476.208" gradientUnits="userSpaceOnUse">
<stop stop-color="#793DF1"/>
<stop offset="0.3" stop-color="#0542FE"/>
<stop offset="1" stop-color="#01175E"/>
</linearGradient>
<linearGradient id="paint30_linear_107_3127" x1="731.04" y1="373.597" x2="1328.07" y2="508.002" gradientUnits="userSpaceOnUse">
<stop stop-color="#793DF1"/>
<stop offset="0.3" stop-color="#0542FE"/>
<stop offset="1" stop-color="#01175E"/>
</linearGradient>
<linearGradient id="paint31_linear_107_3127" x1="730.826" y1="374.124" x2="1314.72" y2="539.688" gradientUnits="userSpaceOnUse">
<stop stop-color="#793DF1"/>
<stop offset="0.3" stop-color="#0542FE"/>
<stop offset="1" stop-color="#01175E"/>
</linearGradient>
<linearGradient id="paint32_linear_107_3127" x1="730.981" y1="375.463" x2="1300.11" y2="571.181" gradientUnits="userSpaceOnUse">
<stop stop-color="#793DF1"/>
<stop offset="0.3" stop-color="#0542FE"/>
<stop offset="1" stop-color="#01175E"/>
</linearGradient>
<linearGradient id="paint33_linear_107_3127" x1="731.462" y1="377.622" x2="1284.27" y2="602.404" gradientUnits="userSpaceOnUse">
<stop stop-color="#793DF1"/>
<stop offset="0.3" stop-color="#0542FE"/>
<stop offset="1" stop-color="#01175E"/>
</linearGradient>
<linearGradient id="paint34_linear_107_3127" x1="732.204" y1="380.612" x2="1267.2" y2="633.285" gradientUnits="userSpaceOnUse">
<stop stop-color="#793DF1"/>
<stop offset="0.3" stop-color="#0542FE"/>
<stop offset="1" stop-color="#01175E"/>
</linearGradient>
<linearGradient id="paint35_linear_107_3127" x1="733.166" y1="384.436" x2="1248.95" y2="663.753" gradientUnits="userSpaceOnUse">
<stop stop-color="#793DF1"/>
<stop offset="0.3" stop-color="#0542FE"/>
<stop offset="1" stop-color="#01175E"/>
</linearGradient>
<linearGradient id="paint36_linear_107_3127" x1="734.302" y1="389.095" x2="1229.54" y2="693.735" gradientUnits="userSpaceOnUse">
<stop stop-color="#793DF1"/>
<stop offset="0.3" stop-color="#0542FE"/>
<stop offset="1" stop-color="#01175E"/>
</linearGradient>
<linearGradient id="paint37_linear_107_3127" x1="735.558" y1="394.588" x2="1209.01" y2="723.166" gradientUnits="userSpaceOnUse">
<stop stop-color="#793DF1"/>
<stop offset="0.3" stop-color="#0542FE"/>
<stop offset="1" stop-color="#01175E"/>
</linearGradient>
<linearGradient id="paint38_linear_107_3127" x1="736.885" y1="400.905" x2="1187.4" y2="751.973" gradientUnits="userSpaceOnUse">
<stop stop-color="#793DF1"/>
<stop offset="0.3" stop-color="#0542FE"/>
<stop offset="1" stop-color="#01175E"/>
</linearGradient>
<linearGradient id="paint39_linear_107_3127" x1="738.257" y1="408.051" x2="1164.77" y2="780.107" gradientUnits="userSpaceOnUse">
<stop stop-color="#793DF1"/>
<stop offset="0.3" stop-color="#0542FE"/>
<stop offset="1" stop-color="#01175E"/>
</linearGradient>
<linearGradient id="paint40_linear_107_3127" x1="739.624" y1="416.003" x2="1141.16" y2="807.494" gradientUnits="userSpaceOnUse">
<stop stop-color="#793DF1"/>
<stop offset="0.3" stop-color="#0542FE"/>
<stop offset="1" stop-color="#01175E"/>
</linearGradient>
<linearGradient id="paint41_linear_107_3127" x1="740.926" y1="424.767" x2="1116.62" y2="834.094" gradientUnits="userSpaceOnUse">
<stop stop-color="#793DF1"/>
<stop offset="0.3" stop-color="#0542FE"/>
<stop offset="1" stop-color="#01175E"/>
</linearGradient>
<linearGradient id="paint42_linear_107_3127" x1="742.134" y1="434.33" x2="1091.22" y2="859.857" gradientUnits="userSpaceOnUse">
<stop stop-color="#793DF1"/>
<stop offset="0.3" stop-color="#0542FE"/>
<stop offset="1" stop-color="#01175E"/>
</linearGradient>
<linearGradient id="paint43_linear_107_3127" x1="743.181" y1="444.637" x2="1064.97" y2="884.695" gradientUnits="userSpaceOnUse">
<stop stop-color="#793DF1"/>
<stop offset="0.3" stop-color="#0542FE"/>
<stop offset="1" stop-color="#01175E"/>
</linearGradient>
<linearGradient id="paint44_linear_107_3127" x1="744.065" y1="455.729" x2="1038" y2="908.619" gradientUnits="userSpaceOnUse">
<stop stop-color="#793DF1"/>
<stop offset="0.3" stop-color="#0542FE"/>
<stop offset="1" stop-color="#01175E"/>
</linearGradient>
<linearGradient id="paint45_linear_107_3127" x1="744.724" y1="467.545" x2="1010.33" y2="931.55" gradientUnits="userSpaceOnUse">
<stop stop-color="#793DF1"/>
<stop offset="0.3" stop-color="#0542FE"/>
<stop offset="1" stop-color="#01175E"/>
</linearGradient>
<linearGradient id="paint46_linear_107_3127" x1="745.105" y1="480.053" x2="982.014" y2="953.44" gradientUnits="userSpaceOnUse">
<stop stop-color="#793DF1"/>
<stop offset="0.3" stop-color="#0542FE"/>
<stop offset="1" stop-color="#01175E"/>
</linearGradient>
<linearGradient id="paint47_linear_107_3127" x1="745.213" y1="493.27" x2="953.166" y2="974.297" gradientUnits="userSpaceOnUse">
<stop stop-color="#793DF1"/>
<stop offset="0.3" stop-color="#0542FE"/>
<stop offset="1" stop-color="#01175E"/>
</linearGradient>
<linearGradient id="paint48_linear_107_3127" x1="745.007" y1="507.165" x2="923.847" y2="994.085" gradientUnits="userSpaceOnUse">
<stop stop-color="#793DF1"/>
<stop offset="0.3" stop-color="#0542FE"/>
<stop offset="1" stop-color="#01175E"/>
</linearGradient>
<linearGradient id="paint49_linear_107_3127" x1="743.798" y1="522.545" x2="893.471" y2="1013.62" gradientUnits="userSpaceOnUse">
<stop stop-color="#793DF1"/>
<stop offset="0.3" stop-color="#0542FE"/>
<stop offset="1" stop-color="#01175E"/>
</linearGradient>
<linearGradient id="paint50_linear_107_3127" x1="741.957" y1="536.942" x2="862.513" y2="1030.43" gradientUnits="userSpaceOnUse">
<stop stop-color="#793DF1"/>
<stop offset="0.3" stop-color="#0542FE"/>
<stop offset="1" stop-color="#01175E"/>
</linearGradient>
<linearGradient id="paint51_linear_107_3127" x1="740.568" y1="552.56" x2="832.157" y2="1046.75" gradientUnits="userSpaceOnUse">
<stop stop-color="#793DF1"/>
<stop offset="0.3" stop-color="#0542FE"/>
<stop offset="1" stop-color="#01175E"/>
</linearGradient>
<linearGradient id="paint52_linear_107_3127" x1="738.741" y1="568.722" x2="801.616" y2="1061.92" gradientUnits="userSpaceOnUse">
<stop stop-color="#793DF1"/>
<stop offset="0.3" stop-color="#0542FE"/>
<stop offset="1" stop-color="#01175E"/>
</linearGradient>
<linearGradient id="paint53_linear_107_3127" x1="736.449" y1="585.387" x2="770.961" y2="1075.91" gradientUnits="userSpaceOnUse">
<stop stop-color="#793DF1"/>
<stop offset="0.3" stop-color="#0542FE"/>
<stop offset="1" stop-color="#01175E"/>
</linearGradient>
<linearGradient id="paint54_linear_107_3127" x1="733.678" y1="602.538" x2="740.275" y2="1088.76" gradientUnits="userSpaceOnUse">
<stop stop-color="#793DF1"/>
<stop offset="0.3" stop-color="#0542FE"/>
<stop offset="1" stop-color="#01175E"/>
</linearGradient>
<linearGradient id="paint55_linear_107_3127" x1="730.39" y1="620.144" x2="709.616" y2="1100.46" gradientUnits="userSpaceOnUse">
<stop stop-color="#793DF1"/>
<stop offset="0.3" stop-color="#0542FE"/>
<stop offset="1" stop-color="#01175E"/>
</linearGradient>
<linearGradient id="paint56_linear_107_3127" x1="726.598" y1="638.149" x2="679.089" y2="1111.01" gradientUnits="userSpaceOnUse">
<stop stop-color="#793DF1"/>
<stop offset="0.3" stop-color="#0542FE"/>
<stop offset="1" stop-color="#01175E"/>
</linearGradient>
<linearGradient id="paint57_linear_107_3127" x1="722.274" y1="656.528" x2="648.754" y2="1120.41" gradientUnits="userSpaceOnUse">
<stop stop-color="#793DF1"/>
<stop offset="0.3" stop-color="#0542FE"/>
<stop offset="1" stop-color="#01175E"/>
</linearGradient>
<linearGradient id="paint58_linear_107_3127" x1="717.403" y1="675.245" x2="618.686" y2="1128.71" gradientUnits="userSpaceOnUse">
<stop stop-color="#793DF1"/>
<stop offset="0.3" stop-color="#0542FE"/>
<stop offset="1" stop-color="#01175E"/>
</linearGradient>
<linearGradient id="paint59_linear_107_3127" x1="711.978" y1="694.266" x2="588.959" y2="1135.91" gradientUnits="userSpaceOnUse">
<stop stop-color="#793DF1"/>
<stop offset="0.3" stop-color="#0542FE"/>
<stop offset="1" stop-color="#01175E"/>
</linearGradient>
<linearGradient id="paint60_linear_107_3127" x1="705.98" y1="713.532" x2="559.633" y2="1142.03" gradientUnits="userSpaceOnUse">
<stop stop-color="#793DF1"/>
<stop offset="0.3" stop-color="#0542FE"/>
<stop offset="1" stop-color="#01175E"/>
</linearGradient>
<linearGradient id="paint61_linear_107_3127" x1="699.416" y1="733.062" x2="530.791" y2="1147.15" gradientUnits="userSpaceOnUse">
<stop stop-color="#793DF1"/>
<stop offset="0.3" stop-color="#0542FE"/>
<stop offset="1" stop-color="#01175E"/>
</linearGradient>
<linearGradient id="paint62_linear_107_3127" x1="692.281" y1="752.761" x2="502.498" y2="1151.25" gradientUnits="userSpaceOnUse">
<stop stop-color="#793DF1"/>
<stop offset="0.3" stop-color="#0542FE"/>
<stop offset="1" stop-color="#01175E"/>
</linearGradient>
<linearGradient id="paint63_linear_107_3127" x1="684.569" y1="772.644" x2="474.817" y2="1154.41" gradientUnits="userSpaceOnUse">
<stop stop-color="#793DF1"/>
<stop offset="0.3" stop-color="#0542FE"/>
<stop offset="1" stop-color="#01175E"/>
</linearGradient>
<linearGradient id="paint64_linear_107_3127" x1="676.301" y1="792.632" x2="447.829" y2="1156.65" gradientUnits="userSpaceOnUse">
<stop stop-color="#793DF1"/>
<stop offset="0.3" stop-color="#0542FE"/>
<stop offset="1" stop-color="#01175E"/>
</linearGradient>
<linearGradient id="paint65_linear_107_3127" x1="667.449" y1="812.703" x2="421.564" y2="1158.03" gradientUnits="userSpaceOnUse">
<stop stop-color="#793DF1"/>
<stop offset="0.3" stop-color="#0542FE"/>
<stop offset="1" stop-color="#01175E"/>
</linearGradient>
<linearGradient id="paint66_linear_107_3127" x1="658.019" y1="832.824" x2="396.08" y2="1158.59" gradientUnits="userSpaceOnUse">
<stop stop-color="#793DF1"/>
<stop offset="0.3" stop-color="#0542FE"/>
<stop offset="1" stop-color="#01175E"/>
</linearGradient>
<linearGradient id="paint67_linear_107_3127" x1="648.043" y1="852.991" x2="371.456" y2="1158.43" gradientUnits="userSpaceOnUse">
<stop stop-color="#793DF1"/>
<stop offset="0.3" stop-color="#0542FE"/>
<stop offset="1" stop-color="#01175E"/>
</linearGradient>
<linearGradient id="paint68_linear_107_3127" x1="637.524" y1="873.138" x2="347.734" y2="1157.58" gradientUnits="userSpaceOnUse">
<stop stop-color="#793DF1"/>
<stop offset="0.3" stop-color="#0542FE"/>
<stop offset="1" stop-color="#01175E"/>
</linearGradient>
</defs>
</svg>
