<svg width="31" height="31" viewBox="0 0 31 31" fill="none" xmlns="http://www.w3.org/2000/svg">
<path d="M30.5055 15.4677C30.5055 14.9502 30.5055 14.4975 30.5055 14.0447C30.5055 12.4924 30.5055 11.1342 30.4409 9.32315C30.4409 7.96489 30.1821 6.73598 29.7294 5.70112C29.3413 4.66625 28.7592 3.82542 27.9831 3.04928C27.2716 2.27313 26.3661 1.75569 25.3312 1.30294C24.2317 0.850186 23.0028 0.656149 21.7092 0.59147C20.4803 0.526791 18.2812 0.462112 15.5 0.526791C12.7188 0.526791 10.5844 0.526791 9.2908 0.59147C7.93254 0.59147 6.76831 0.850186 5.66877 1.30294C4.6339 1.69101 3.7284 2.27313 3.01693 3.04928C2.24078 3.82542 1.65866 4.66625 1.27059 5.70112C0.817835 6.80066 0.623799 8.02956 0.55912 9.32315C0.429762 11.6516 0.494442 13.3979 0.494442 15.5323C0.494442 16.0498 0.494442 16.5025 0.494442 16.9553C0.494442 18.5076 0.494441 19.8658 0.55912 21.6769C0.55912 23.0351 0.817835 24.264 1.27059 25.2989C1.65866 26.3337 2.24078 27.1746 3.01693 27.9507C3.7284 28.7269 4.6339 29.2443 5.66877 29.6971C6.76831 30.1498 7.99721 30.3438 9.2908 30.4085C10.5197 30.4732 12.7188 30.5379 15.5 30.4732C18.2812 30.4732 20.4156 30.4732 21.7092 30.4085C23.0674 30.4085 24.2317 30.1498 25.3312 29.6971C26.3661 29.309 27.2716 28.7269 27.9831 27.9507C28.7592 27.1746 29.3413 26.3337 29.7294 25.2989C30.1821 24.1993 30.3762 22.9704 30.4409 21.6769C30.5702 19.3484 30.5055 17.6021 30.5055 15.4677ZM27.7243 21.4828C27.7243 22.5824 27.5303 23.5525 27.2069 24.264V24.3287C26.9482 24.9755 26.6248 25.4929 26.1074 26.0104C25.6546 26.4631 25.1372 26.7865 24.4257 27.1099C23.6496 27.4333 22.744 27.6273 21.7092 27.6273C20.8037 27.6273 19.1867 27.692 16.9876 27.692C16.5995 27.692 16.1468 27.692 15.7587 27.692C15.306 27.692 14.9179 27.692 14.5298 27.692C12.266 27.692 10.7137 27.692 9.80823 27.6273C8.77337 27.6273 7.86786 27.4333 7.09171 27.1099C6.38024 26.8512 5.8628 26.4631 5.41005 26.0104C4.89262 25.4929 4.56922 24.9755 4.31051 24.3287V24.264C4.05179 23.5525 3.85775 22.647 3.79307 21.5475C3.72839 19.9305 3.7284 18.5723 3.7284 17.214C3.7284 16.6319 3.7284 16.1145 3.7284 15.4677C3.7284 14.8855 3.7284 14.3034 3.7284 13.7213C3.7284 12.3631 3.72839 11.0048 3.79307 9.38783C3.79307 8.28828 3.98711 7.3181 4.31051 6.60663V6.54195C4.56922 5.89516 4.89262 5.37772 5.41005 4.86029C5.8628 4.40754 6.38024 4.08414 7.09171 3.76075C7.86786 3.43735 8.77337 3.24331 9.80823 3.24331C10.7137 3.24331 12.3307 3.17863 14.5298 3.17863C16.7289 3.17863 15.3706 3.17863 15.7587 3.17863C16.2115 3.17863 16.5995 3.17863 16.9876 3.17863C19.2514 3.17863 20.8037 3.17863 21.7092 3.24331C22.744 3.24331 23.6496 3.43735 24.4257 3.76075C25.1372 4.01946 25.6546 4.40754 26.1074 4.86029C26.6248 5.37772 26.9482 5.89516 27.2069 6.54195V6.60663C27.4656 7.3181 27.6597 8.2236 27.7243 9.32315C27.789 10.9401 27.789 12.2984 27.789 13.6566C27.789 14.2388 27.789 14.7562 27.789 15.403C27.789 15.9851 27.789 16.5672 27.789 17.1493C27.789 18.5076 27.789 19.8658 27.7243 21.4828Z" fill="#645BFF"/>
<path d="M15.4999 7.77075C11.231 7.77075 7.80304 11.1987 7.80304 15.4676C7.80304 19.7364 11.231 23.1644 15.4999 23.1644C19.7687 23.1644 23.1967 19.7364 23.1967 15.4676C23.1967 11.1987 19.7687 7.77075 15.4999 7.77075ZM15.4999 20.4479C12.7187 20.4479 10.5196 18.1841 10.5196 15.4676C10.5196 12.751 12.7833 10.4873 15.4999 10.4873C18.2811 10.4873 20.4801 12.751 20.4801 15.4676C20.4801 18.1841 18.2164 20.4479 15.4999 20.4479Z" fill="#645BFF"/>
<path d="M23.5201 5.63647C22.5499 5.63647 21.709 6.41262 21.709 7.44749C21.709 8.48235 22.4852 9.2585 23.5201 9.2585C24.5549 9.2585 25.3311 8.48235 25.3311 7.44749C25.3311 6.41262 24.5549 5.63647 23.5201 5.63647Z" fill="#645BFF"/>
</svg>
