<svg width="32" height="31" viewBox="0 0 32 31" fill="none" xmlns="http://www.w3.org/2000/svg">
<path d="M7.70388 10.4998H1.4816V30.4997H7.70388V10.4998Z" fill="#645BFF"/>
<path d="M31.0371 17.9074V30.5H24.8148V20.5741C24.8148 19.9815 24.8148 19.3889 24.8148 18.8704C24.6667 16.426 23.6296 15.0926 21.4815 15.0926C20.8889 15.0926 20.3704 15.2408 19.9259 15.463C18.5926 16.1297 17.7037 17.6111 17.7037 20.5V30.4259H11.4814V10.426H17.4815V12.9445C19.3333 10.7963 21.6296 9.463 24.8148 9.68522C29.3334 10.426 30.889 13.5371 31.0371 17.8334V17.9074Z" fill="#645BFF"/>
<path d="M4.59268 7.75925C6.59728 7.75925 8.22235 6.13422 8.22235 4.12963C8.22235 2.12504 6.59728 0.5 4.59268 0.5C2.58808 0.5 0.963013 2.12504 0.963013 4.12963C0.963013 6.13422 2.58808 7.75925 4.59268 7.75925Z" fill="#645BFF"/>
</svg>
