<svg width="204" height="54" viewBox="0 0 204 54" fill="none" xmlns="http://www.w3.org/2000/svg">
<path d="M88.893 37.5721H87.4264L98.8384 16.2839H102.274V46.6589H98.8384V21.685L99.5909 21.8631L89.9665 39.5025H86.3529L76.7286 21.9L77.4795 21.7219V39.504H74.0457V16.2839H77.4795L88.893 37.5721Z" fill="white"/>
<path d="M120.056 33.7082H123.312C123.12 34.8769 122.667 35.9258 121.953 36.8564C121.237 37.7871 120.294 38.5273 119.125 39.0755C117.957 39.6238 116.585 39.8987 115.011 39.8987C113.151 39.8987 111.493 39.5055 110.038 38.7177C108.583 37.9299 107.438 36.8457 106.603 35.462C105.768 34.0798 105.351 32.4688 105.351 30.6321C105.351 28.7954 105.757 27.1445 106.568 25.7485C107.379 24.3525 108.5 23.2622 109.931 22.4744C111.362 21.6865 112.996 21.2934 114.833 21.2934C116.765 21.2934 118.387 21.6758 119.7 22.439C121.011 23.2023 121.983 24.3295 122.614 25.8192C123.246 27.3104 123.504 29.164 123.384 31.3831H108.75C108.87 32.4566 109.197 33.4102 109.734 34.2457C110.27 35.0811 110.986 35.7369 111.881 36.2129C112.775 36.6906 113.807 36.9286 114.976 36.9286C116.287 36.9286 117.384 36.6307 118.268 36.0348C119.15 35.4389 119.747 34.6634 120.057 33.7097L120.056 33.7082ZM114.868 24.2266C113.317 24.2266 112.029 24.6382 111.004 25.4613C109.979 26.2845 109.298 27.3749 108.965 28.7355H119.948C119.853 27.2812 119.328 26.1647 118.374 25.3907C117.421 24.6152 116.252 24.2282 114.868 24.2282V24.2266Z" fill="white"/>
<path d="M139.698 33.7082H142.954C142.762 34.8769 142.309 35.9258 141.595 36.8564C140.879 37.7871 139.936 38.5273 138.767 39.0755C137.599 39.6238 136.227 39.8987 134.653 39.8987C132.793 39.8987 131.135 39.5055 129.68 38.7177C128.225 37.9299 127.08 36.8457 126.245 35.462C125.41 34.0798 124.993 32.4688 124.993 30.6321C124.993 28.7954 125.399 27.1445 126.21 25.7485C127.021 24.3525 128.142 23.2622 129.573 22.4744C131.004 21.6865 132.638 21.2934 134.475 21.2934C136.407 21.2934 138.029 21.6758 139.342 22.439C140.653 23.2023 141.625 24.3295 142.256 25.8192C142.888 27.3104 143.146 29.164 143.026 31.3831H128.392C128.512 32.4566 128.839 33.4102 129.376 34.2457C129.912 35.0811 130.628 35.7369 131.523 36.2129C132.417 36.6906 133.449 36.9286 134.618 36.9286C135.929 36.9286 137.026 36.6307 137.91 36.0348C138.792 35.4389 139.389 34.6634 139.699 33.7097L139.698 33.7082ZM134.51 24.2266C132.959 24.2266 131.671 24.6382 130.646 25.4613C129.621 26.2845 128.94 27.3749 128.607 28.7355H139.59C139.495 27.2812 138.97 26.1647 138.016 25.3907C137.063 24.6152 135.894 24.2282 134.51 24.2282V24.2266Z" fill="white"/>
<path d="M152.936 39.8618C151.385 39.8618 149.978 39.4687 148.714 38.6808C147.45 37.8946 146.453 36.8027 145.727 35.4082C144.999 34.0122 144.635 32.409 144.635 30.5953C144.635 28.7816 144.993 27.1783 145.709 25.7838C146.424 24.3879 147.403 23.2914 148.643 22.4912C149.883 21.6927 151.314 21.2934 152.937 21.2934C154.344 21.2934 155.513 21.533 156.443 22.009C157.374 22.4866 158.1 23.1547 158.626 24.0131C159.149 24.8716 159.526 25.8622 159.751 26.9832C159.977 28.1043 160.092 29.3083 160.092 30.5968C160.092 31.552 159.972 32.5641 159.734 33.6375C159.495 34.711 159.114 35.7246 158.589 36.6783C158.064 37.6335 157.337 38.4029 156.407 38.9865C155.476 39.57 154.319 39.8634 152.936 39.8634V39.8618ZM153.902 36.8917C155.166 36.8917 156.233 36.6122 157.104 36.0517C157.974 35.4927 158.624 34.734 159.054 33.7804C159.483 32.8267 159.699 31.7655 159.699 30.5953C159.699 29.3314 159.478 28.2226 159.037 27.2689C158.595 26.3152 157.941 25.575 157.07 25.0498C156.199 24.5261 155.144 24.2635 153.903 24.2635C152.044 24.2635 150.606 24.8593 149.592 26.0526C148.577 27.2458 148.072 28.7601 148.072 30.5968C148.072 31.8377 148.322 32.928 148.823 33.871C149.324 34.8139 150.009 35.5526 150.881 36.0885C151.752 36.6245 152.759 36.8933 153.903 36.8933L153.902 36.8917ZM159.698 14.4947H163.131V39.504H159.983C159.913 38.9803 159.845 38.3353 159.787 37.5721C159.727 36.8088 159.698 36.153 159.698 35.6048V14.4963V14.4947Z" fill="white"/>
<path d="M165.566 21.6512H169.215L176.048 38.7883L173.08 39.504L165.567 21.6512H165.566ZM183.776 21.6512L173.078 46.6605H169.465L174.08 36.9654L180.163 21.6527H183.776V21.6512Z" fill="white"/>
<path d="M193.651 39.8971C191.909 39.8971 190.311 39.527 188.856 38.7884C187.402 38.0497 186.244 36.9869 185.386 35.6033C184.527 34.2211 184.097 32.5625 184.097 30.6306C184.097 28.6986 184.527 27.0001 185.386 25.6042C186.244 24.2082 187.401 23.1409 188.856 22.4022C190.311 21.6635 191.909 21.2934 193.651 21.2934C195.392 21.2934 196.977 21.6635 198.409 22.4022C199.84 23.1424 200.986 24.2097 201.844 25.6042C202.703 27.0001 203.133 28.6756 203.133 30.6306C203.133 32.5856 202.703 34.2211 201.844 35.6033C200.986 36.9869 199.84 38.0481 198.409 38.7884C196.977 39.527 195.391 39.8971 193.651 39.8971ZM193.651 36.9286C194.724 36.9286 195.72 36.6844 196.638 36.1945C197.556 35.7062 198.295 34.9905 198.856 34.0476C199.416 33.1062 199.697 31.9667 199.697 30.6306C199.697 29.2945 199.416 28.1151 198.856 27.1599C198.295 26.2062 197.556 25.4782 196.638 24.9776C195.72 24.4769 194.724 24.2266 193.651 24.2266C192.578 24.2266 191.576 24.4708 190.646 24.9592C189.715 25.4491 188.964 26.1708 188.391 27.1245C187.818 28.0782 187.533 29.2469 187.533 30.6306C187.533 32.0143 187.812 33.1062 188.373 34.0476C188.932 34.9905 189.678 35.7062 190.609 36.1945C191.539 36.6844 192.551 36.9286 193.649 36.9286H193.651Z" fill="white"/>
<path d="M23.9534 31.4752C23.9534 31.4752 16.8292 17.4664 9.9476 17.8518C6.72718 17.6414 3.82927 19.9327 3.34245 23.1823L0.0698218 45.0618C-0.44311 48.488 1.92037 51.6808 5.34657 52.1937C8.77277 52.7066 11.9655 50.3432 12.4785 46.917L14.3705 34.261C14.3705 34.261 15.3871 23.7244 25.1221 33.5316L23.9534 31.4722V31.4752Z" fill="url(#paint0_linear_194_2174)"/>
<path d="M27.9249 37.5337C30.6288 37.5337 32.8208 35.3417 32.8208 32.6378C32.8208 29.9339 30.6288 27.7419 27.9249 27.7419C25.221 27.7419 23.029 29.9339 23.029 32.6378C23.029 35.3417 25.221 37.5337 27.9249 37.5337Z" fill="#645BFF"/>
<path d="M30.4588 32.6378C30.4588 32.6378 40.1538 22.2609 41.9783 19.7515C43.8027 17.2422 44.4846 4.97941 44.4846 4.97941L30.4588 32.6378Z" fill="url(#paint1_linear_194_2174)"/>
<path d="M50.9862 1.70722L50.9847 1.70699C47.5472 1.18712 44.3391 3.55232 43.8192 6.98983L38.0514 45.1274C37.5316 48.5649 39.8968 51.773 43.3343 52.2929L43.3358 52.2931C46.7733 52.813 49.9814 50.4478 50.5013 47.0102L56.269 8.87269C56.7889 5.43518 54.4237 2.22709 50.9862 1.70722Z" fill="url(#paint2_linear_194_2174)"/>
<defs>
<linearGradient id="paint0_linear_194_2174" x1="20.3583" y1="29.0549" x2="-2.27369" y2="39.9586" gradientUnits="userSpaceOnUse">
<stop stop-color="#8274FF"/>
<stop offset="0.54" stop-color="#645BFF"/>
</linearGradient>
<linearGradient id="paint1_linear_194_2174" x1="46.7513" y1="14.3381" x2="27.2937" y2="23.7106" gradientUnits="userSpaceOnUse">
<stop stop-color="#8274FF"/>
<stop offset="0.54" stop-color="#645BFF"/>
</linearGradient>
<linearGradient id="paint2_linear_194_2174" x1="57.4659" y1="23.7376" x2="33.5896" y2="30.2815" gradientUnits="userSpaceOnUse">
<stop stop-color="#8274FF"/>
<stop offset="0.54" stop-color="#645BFF"/>
</linearGradient>
</defs>
</svg>
