<svg width="24" height="31" viewBox="0 0 24 31" fill="none" xmlns="http://www.w3.org/2000/svg">
<path d="M24 11.299C24 14.9194 22.9116 17.9579 20.7348 20.35C19.2623 21.9662 17.3416 22.936 14.9727 23.1946C12.4758 23.3239 10.9392 22.4834 9.97889 20.9965L8.8905 25.328C8.50636 26.6857 7.93015 27.914 7.28992 29.1424L6.52163 30.5C6.07347 30.3707 5.68933 30.2414 5.24117 30.0475L5.0491 28.2373C4.98508 26.815 5.0491 25.522 5.30519 24.3583L7.48198 15.178C6.96979 13.7557 6.77774 12.4627 7.03383 11.1697C7.48199 9.29482 8.37831 8.13112 9.78682 7.80787C11.1313 7.61392 11.9636 8.06647 12.3478 8.90692C12.7959 9.74737 12.7319 10.7818 12.4758 12.0101L11.2593 16.277C11.1313 16.6003 11.0673 16.8589 11.0673 17.1821C11.0033 18.4105 11.5795 19.3156 12.7319 19.8974C14.3965 20.4793 15.9331 19.8974 17.4056 18.5398C18.8141 16.9235 19.6464 14.8547 19.7745 12.3334C19.9665 10.0706 19.3903 7.93717 17.8538 6.12697C15.9331 4.18747 13.4361 3.34702 10.299 3.86422C7.41795 4.38142 5.36922 5.99767 4.15278 8.64832C3.44853 10.2646 3.32047 11.9455 3.70461 13.6264C3.89668 14.3375 4.08876 15.0487 4.4729 15.6952C4.60094 15.8891 4.72898 16.1477 4.85702 16.3417C4.98507 16.471 5.0491 16.6649 4.98508 16.8589L4.40887 19.1216C4.40887 19.3156 4.15277 19.3802 4.02473 19.3802C1.52782 18.5398 -1.41726 13.3678 0.759536 7.67857C1.71989 5.22187 3.3845 3.34702 5.75336 2.05403C7.73809 1.01963 9.9789 0.502426 12.4118 0.502426C15.805 0.437776 18.6861 1.66613 21.119 4.05817C23.0397 6.06232 23.936 8.51902 24 11.299Z" fill="#645BFF"/>
</svg>
