<svg width="30" height="31" viewBox="0 0 30 31" fill="none" xmlns="http://www.w3.org/2000/svg">
<path d="M27.1131 24.041C27.1131 24.041 26.9663 26.1944 25.0086 26.1944C23.4967 26.1944 22.4642 25.0413 21.4974 23.5438C24.2435 21.1468 25.9874 17.5673 25.9874 13.5674C25.9874 6.3505 20.3122 0.5 13.3115 0.5C6.31082 0.5 0.63562 6.3505 0.63562 13.5675C0.63562 20.7844 6.31082 26.6349 13.3115 26.6349C14.582 26.6349 15.8084 26.4414 16.9656 26.0828C18.4297 28.4087 20.2882 30.5 23.1978 30.5C29.1197 30.5 29.3644 24.041 29.3644 24.041L27.1131 24.041ZM13.3115 24.4815C9.23001 24.4815 5.9213 19.5951 5.9213 13.5675C5.9213 7.53985 9.23001 2.65345 13.3115 2.65345C17.3931 2.65345 20.7017 7.53985 20.7017 13.5675C20.7017 15.9643 20.1781 18.1803 19.2912 19.9808C18.2893 18.5503 17.0866 17.3322 15.3671 16.9444C12.3167 16.2566 9.68982 17.6296 8.85781 18.3148L9.64086 19.9299C9.64086 19.9299 10.4325 19.4748 12.3953 19.9294C13.6321 20.2158 14.5932 21.9321 15.6946 23.9013C14.947 24.2773 14.1454 24.4815 13.3115 24.4815Z" fill="#645BFF"/>
</svg>
