<svg width="107" height="19" viewBox="0 0 107 19" fill="none" xmlns="http://www.w3.org/2000/svg">
<g clip-path="url(#clip0_302_190)">
<g clip-path="url(#clip1_302_190)">
<g clip-path="url(#clip2_302_190)">
<mask id="mask0_302_190" style="mask-type:luminance" maskUnits="userSpaceOnUse" x="0" y="0" width="19" height="19">
<path d="M18.08 0.0400391H0V18.12H18.08V0.0400391Z" fill="white"/>
</mask>
<g mask="url(#mask0_302_190)">
<path d="M9.04 1.16992L6.46926 6.37922L0.723206 7.20977L4.88161 11.2665L3.8985 16.9899L9.04 14.2892L14.1816 16.9899L13.1984 11.2665L17.3568 7.21542L11.6108 6.37922L9.04 1.16992Z" fill="#EADB5B"/>
</g>
</g>
</g>
</g>
<g clip-path="url(#clip3_302_190)">
<g clip-path="url(#clip4_302_190)">
<g clip-path="url(#clip5_302_190)">
<mask id="mask1_302_190" style="mask-type:luminance" maskUnits="userSpaceOnUse" x="22" y="0" width="19" height="19">
<path d="M40.16 0.0400391H22.08V18.12H40.16V0.0400391Z" fill="white"/>
</mask>
<g mask="url(#mask1_302_190)">
<path d="M31.12 1.16992L28.5492 6.37922L22.8032 7.20977L26.9616 11.2665L25.9785 16.9899L31.12 14.2892L36.2615 16.9899L35.2784 11.2665L39.4368 7.21542L33.6908 6.37922L31.12 1.16992Z" fill="#EADB5B"/>
</g>
</g>
</g>
</g>
<g clip-path="url(#clip6_302_190)">
<g clip-path="url(#clip7_302_190)">
<g clip-path="url(#clip8_302_190)">
<mask id="mask2_302_190" style="mask-type:luminance" maskUnits="userSpaceOnUse" x="44" y="0" width="19" height="19">
<path d="M62.24 0.0400391H44.16V18.12H62.24V0.0400391Z" fill="white"/>
</mask>
<g mask="url(#mask2_302_190)">
<path d="M53.2 1.16992L50.6293 6.37922L44.8832 7.20977L49.0416 11.2665L48.0585 16.9899L53.2 14.2892L58.3416 16.9899L57.3584 11.2665L61.5168 7.21542L55.7708 6.37922L53.2 1.16992Z" fill="#EADB5B"/>
</g>
</g>
</g>
</g>
<g clip-path="url(#clip9_302_190)">
<g clip-path="url(#clip10_302_190)">
<g clip-path="url(#clip11_302_190)">
<mask id="mask3_302_190" style="mask-type:luminance" maskUnits="userSpaceOnUse" x="66" y="0" width="19" height="19">
<path d="M84.31 0.0400391H66.23V18.12H84.31V0.0400391Z" fill="white"/>
</mask>
<g mask="url(#mask3_302_190)">
<path d="M75.27 1.16992L72.6992 6.37922L66.9532 7.20977L71.1116 11.2665L70.1285 16.9899L75.27 14.2892L80.4115 16.9899L79.4284 11.2665L83.5868 7.21542L77.8408 6.37922L75.27 1.16992Z" fill="#EADB5B"/>
</g>
</g>
</g>
</g>
<g clip-path="url(#clip12_302_190)">
<g clip-path="url(#clip13_302_190)">
<g clip-path="url(#clip14_302_190)">
<mask id="mask4_302_190" style="mask-type:luminance" maskUnits="userSpaceOnUse" x="88" y="0" width="19" height="19">
<path d="M106.39 0.0400391H88.31V18.12H106.39V0.0400391Z" fill="white"/>
</mask>
<g mask="url(#mask4_302_190)">
<path d="M97.35 1.16992L94.7793 6.37922L89.0332 7.20977L93.1916 11.2665L92.2085 16.9899L97.35 14.2892L102.492 16.9899L101.508 11.2665L105.667 7.21542L99.9208 6.37922L97.35 1.16992Z" fill="#EADB5B"/>
</g>
</g>
</g>
</g>
<defs>
<clipPath id="clip0_302_190">
<rect width="18.08" height="18.08" fill="white" transform="translate(0 0.0400391)"/>
</clipPath>
<clipPath id="clip1_302_190">
<rect width="18.08" height="18.08" fill="white" transform="translate(0 0.0400391)"/>
</clipPath>
<clipPath id="clip2_302_190">
<rect width="18.08" height="18.08" fill="white" transform="translate(0 0.0400391)"/>
</clipPath>
<clipPath id="clip3_302_190">
<rect width="18.08" height="18.08" fill="white" transform="translate(22.08 0.0400391)"/>
</clipPath>
<clipPath id="clip4_302_190">
<rect width="18.08" height="18.08" fill="white" transform="translate(22.08 0.0400391)"/>
</clipPath>
<clipPath id="clip5_302_190">
<rect width="18.08" height="18.08" fill="white" transform="translate(22.08 0.0400391)"/>
</clipPath>
<clipPath id="clip6_302_190">
<rect width="18.07" height="18.08" fill="white" transform="translate(44.16 0.0400391)"/>
</clipPath>
<clipPath id="clip7_302_190">
<rect width="18.07" height="18.08" fill="white" transform="translate(44.16 0.0400391)"/>
</clipPath>
<clipPath id="clip8_302_190">
<rect width="18.08" height="18.08" fill="white" transform="translate(44.16 0.0400391)"/>
</clipPath>
<clipPath id="clip9_302_190">
<rect width="18.08" height="18.08" fill="white" transform="translate(66.23 0.0400391)"/>
</clipPath>
<clipPath id="clip10_302_190">
<rect width="18.08" height="18.08" fill="white" transform="translate(66.23 0.0400391)"/>
</clipPath>
<clipPath id="clip11_302_190">
<rect width="18.08" height="18.08" fill="white" transform="translate(66.23 0.0400391)"/>
</clipPath>
<clipPath id="clip12_302_190">
<rect width="18.08" height="18.08" fill="white" transform="translate(88.31 0.0400391)"/>
</clipPath>
<clipPath id="clip13_302_190">
<rect width="18.08" height="18.08" fill="white" transform="translate(88.31 0.0400391)"/>
</clipPath>
<clipPath id="clip14_302_190">
<rect width="18.08" height="18.08" fill="white" transform="translate(88.31 0.0400391)"/>
</clipPath>
</defs>
</svg>
