<svg width="27" height="31" viewBox="0 0 27 31" fill="none" xmlns="http://www.w3.org/2000/svg">
<path d="M23.056 15.7037C22.3207 15.1221 21.5186 14.6698 20.6496 14.2822C20.5827 13.1191 20.3154 11.8915 19.7806 10.7931C18.7779 8.9193 16.7725 7.69166 14.4329 7.49782C11.8927 7.3686 9.35253 8.46702 8.0156 10.4054L10.4221 11.9561C11.2243 10.8577 12.6948 10.2116 14.2323 10.2762C15.5692 10.3408 16.6388 10.9869 17.1736 12.0207C17.3741 12.4084 17.5078 12.8607 17.6415 13.3776C16.8393 13.2484 16.0372 13.1838 15.235 13.1838C12.8954 13.1838 11.0906 13.636 9.75363 14.6052C7.88193 15.9621 7.28028 18.2882 8.21613 20.3558C8.81775 21.7127 10.021 22.6818 11.6253 23.1341C13.497 23.7156 15.703 23.4572 17.3073 22.5526C19.0453 21.5188 20.1817 19.7097 20.5159 17.319C20.7833 17.4482 20.9838 17.642 21.2512 17.8359C22.3207 18.6758 22.8555 19.9035 22.7887 21.4542C22.7887 23.0695 21.9197 24.5556 20.3154 25.7833C17.9757 27.5924 14.0986 28.2385 10.5558 27.334C7.68136 26.6232 5.47545 24.7495 4.27221 21.9711C2.80159 18.6112 2.5342 14.6698 3.47005 11.1161C4.13851 8.59624 5.4086 6.52863 6.94607 5.3656C8.48354 4.20257 10.6226 3.49183 13.2296 3.3626C18.9116 3.10415 22.9892 5.8825 24.1924 10.7931L27 10.1469C25.4625 3.8795 20.1148 0.19657 13.0291 0.519634C9.82045 0.64886 7.1466 1.55344 5.14121 3.10415C2.5342 5.10715 1.26411 8.14395 0.662491 10.3408C-0.473899 14.476 -0.13965 19.0635 1.59836 23.0049C3.13582 26.5586 6.07706 29.0785 9.82046 29.9831C11.0237 30.3062 12.4275 30.5 13.8312 30.5C16.6388 30.5 19.6469 29.7893 22.0533 27.9155C24.2593 26.1709 25.5294 23.9741 25.5962 21.5188C25.663 19.0635 24.7941 16.9959 22.9892 15.5744L23.056 15.7037ZM17.6415 16.9313C17.5078 18.0297 17.0399 19.5158 15.7698 20.2266C14.9008 20.7435 13.5639 20.8727 12.4943 20.5496C11.9595 20.3558 11.2242 20.0327 10.89 19.2574C10.4889 18.4174 10.7563 17.4482 11.5585 16.8667C12.3606 16.2852 13.4302 16.0267 14.9676 16.0267C16.5051 16.0267 15.1013 16.0267 15.1682 16.0267C16.104 16.0267 16.973 16.1559 17.7752 16.3498C17.7752 16.5436 17.7752 16.7375 17.7083 16.9313H17.6415Z" fill="#645BFF"/>
</svg>
