<svg width="27" height="31" viewBox="0 0 27 31" fill="none" xmlns="http://www.w3.org/2000/svg">
<path d="M27 7.69222V12.8758C24.2667 12.8758 21.6667 12.0335 19.6 10.5432V20.9752C19.6 24.6685 17.4667 27.8434 14.2667 29.4633C12.9333 30.1112 11.4 30.5 9.80001 30.5C4.40001 30.5 0 26.2235 0 20.9752C0 15.7268 4.40001 11.4503 9.80001 11.4503C15.2 11.4503 10.7333 11.4503 11.1333 11.5151V16.7635C10.7333 16.6339 10.2667 16.5691 9.80001 16.5691C7.33334 16.5691 5.33333 18.513 5.33333 20.9104C5.33333 23.3078 7.33334 25.2516 9.80001 25.2516C12.2667 25.2516 14.2667 23.3078 14.2667 20.9104V0.5H19.6C19.6 4.45248 22.9333 7.69222 27 7.69222Z" fill="#645BFF"/>
</svg>
