<svg width="30" height="21" viewBox="0 0 30 21" fill="none" xmlns="http://www.w3.org/2000/svg">
<path d="M29.3644 3.28916C29.1102 2.34036 28.3475 1.0753 26.6949 0.63253C24.5975 0.063253 19.1949 0.063253 15 0C12.9025 0 10.4873 -1.22531e-07 8.38983 0.126506C6.22881 0.189759 4.38559 0.379518 3.30508 0.63253C1.7161 1.0753 0.889831 2.34036 0.635593 3.28916C0.190678 4.61747 0 8.28614 0 10.5C0 12.7139 0.190678 16.3825 0.635593 17.7108C0.889831 18.6596 1.65254 19.9247 3.30508 20.3675C5.40254 20.9367 10.8051 20.9367 15 21C17.0975 21 19.5127 21 21.6102 20.8735C23.7712 20.8102 25.6144 20.6205 26.6949 20.3675C28.2839 19.9247 29.1102 18.6596 29.3644 17.7108C29.8093 16.3193 30 12.7139 30 10.5C30 8.28614 29.8093 4.61747 29.3644 3.28916ZM11.9492 14.991V6.13554L19.767 10.5633L11.9492 14.991Z" fill="#645BFF"/>
</svg>
